<?xml version="1.0" standalone="no"?>
<!DOCTYPE svg PUBLIC "-//W3C//DTD SVG 20010904//EN"
 "http://www.w3.org/TR/2001/REC-SVG-20010904/DTD/svg10.dtd">
<svg version="1.0" xmlns="http://www.w3.org/2000/svg"
 width="1897.000000pt" height="852.000000pt" viewBox="0 0 1897.000000 852.000000"
 preserveAspectRatio="xMidYMid meet">

<g transform="translate(0.000000,852.000000) scale(0.100000,-0.100000)"
fill="#000000" stroke="none">
<path d="M17390 8085 l0 -225 675 0 675 0 0 225 0 225 -675 0 -675 0 0 -225z
m1330 0 l0 -205 -655 0 -655 0 0 205 0 205 655 0 655 0 0 -205z"/>
<path d="M18400 8092 l0 -78 42 -1 c50 -2 78 18 78 57 0 44 -21 63 -63 58 -33
-4 -37 -2 -37 19 0 13 -4 23 -10 23 -6 0 -10 -33 -10 -78z m88 16 c18 -18 15
-66 -5 -76 -10 -6 -28 -6 -40 -1 -40 15 -26 89 17 89 9 0 21 -5 28 -12z"/>
<path d="M17750 8155 c0 -3 9 -23 20 -45 11 -22 20 -53 20 -70 0 -16 5 -30 10
-30 6 0 10 15 10 33 0 17 11 51 25 75 13 23 20 42 15 42 -5 0 -18 -17 -29 -37
l-19 -38 -18 38 c-15 32 -34 49 -34 32z"/>
<path d="M18173 8141 c-7 -10 -8 -22 -3 -27 5 -5 10 -29 12 -54 3 -38 7 -46
26 -48 27 -4 29 14 2 21 -30 8 -28 74 3 87 16 6 17 9 5 9 -9 1 -21 8 -25 16
-7 12 -10 12 -20 -4z"/>
<path d="M17498 8139 c-24 -13 -25 -110 -2 -133 18 -19 163 -23 195 -6 25 14
28 110 3 134 -18 19 -167 22 -196 5z m107 -51 c14 -6 25 -14 25 -18 0 -6 -44
-30 -55 -30 -3 0 -5 14 -5 30 0 34 0 34 35 18z"/>
<path d="M17892 8118 c-17 -17 -15 -74 4 -92 21 -22 60 -20 84 4 24 24 25 48
4 78 -17 25 -71 31 -92 10z m69 -8 c26 -14 24 -55 -3 -74 -40 -29 -81 21 -51
63 16 24 26 26 54 11z"/>
<path d="M18030 8081 c0 -58 12 -71 68 -68 l42 1 0 58 c0 32 -4 58 -10 58 -5
0 -10 -18 -10 -39 0 -49 -23 -76 -51 -61 -14 8 -19 21 -19 55 0 25 -4 45 -10
45 -5 0 -10 -22 -10 -49z"/>
<path d="M18250 8087 c0 -55 22 -77 73 -75 l37 1 0 59 c0 32 -4 58 -10 58 -5
0 -10 -20 -10 -45 0 -32 -5 -47 -18 -54 -31 -17 -52 5 -52 54 0 25 -4 45 -10
45 -5 0 -10 -20 -10 -43z"/>
<path d="M18562 8118 c-20 -20 -15 -86 7 -98 28 -15 57 -12 76 6 22 23 12 29
-17 10 -22 -14 -26 -14 -46 0 -31 21 -19 34 34 34 36 0 44 3 44 18 0 27 -20
42 -55 42 -17 0 -36 -5 -43 -12z m62 -4 c33 -13 17 -34 -24 -34 -45 0 -47 2
-24 24 17 18 24 19 48 10z"/>
<path d="M316 8203 c-4 -11 -1 -22 8 -29 23 -16 23 -179 1 -192 -10 -5 -13
-15 -9 -25 5 -14 21 -17 95 -17 l89 0 0 40 c0 33 -3 40 -19 40 -11 0 -23 -4
-26 -10 -3 -5 -17 -10 -31 -10 -19 0 -24 5 -24 25 0 21 5 25 30 25 19 0 30 5
30 14 0 8 3 21 6 30 5 13 -1 16 -30 16 -30 0 -36 4 -36 21 0 20 4 21 50 15
l50 -7 0 41 0 40 -89 0 c-75 0 -90 -3 -95 -17z"/>
<path d="M530 8201 c0 -11 5 -23 10 -26 6 -3 10 -48 10 -101 0 -56 -4 -94 -10
-94 -5 0 -10 -9 -10 -20 0 -18 7 -20 69 -20 38 0 77 3 86 6 29 12 45 60 45
138 0 66 -3 78 -26 105 -25 29 -29 31 -100 31 -67 0 -74 -2 -74 -19z m134 -67
c12 -31 6 -102 -10 -118 -34 -34 -44 -20 -44 59 0 72 1 75 24 75 13 0 27 -7
30 -16z"/>
<path d="M760 8201 c0 -11 5 -23 10 -26 6 -3 10 -42 10 -85 0 -43 4 -90 10
-105 14 -36 68 -58 108 -44 49 17 62 47 62 143 0 47 5 88 10 91 6 3 10 15 10
26 0 16 -7 19 -40 19 l-40 0 0 -99 c0 -75 -4 -101 -15 -111 -12 -10 -18 -10
-30 0 -11 10 -15 36 -15 111 l0 99 -40 0 c-33 0 -40 -3 -40 -19z"/>
<path d="M1110 8201 c0 -11 5 -23 10 -26 6 -3 10 -48 10 -101 0 -56 -4 -94
-10 -94 -5 0 -10 -9 -10 -20 0 -19 7 -20 96 -20 l95 0 -3 38 c-2 30 -7 38 -25
40 -13 2 -23 -1 -23 -7 0 -6 -13 -11 -30 -11 -25 0 -30 4 -30 25 0 21 5 25 29
25 21 0 30 6 35 23 9 35 8 37 -29 37 -29 0 -35 4 -35 21 0 18 5 20 53 17 l52
-3 0 35 0 35 -92 3 c-87 3 -93 1 -93 -17z"/>
<path d="M1323 8204 c-3 -8 -1 -20 6 -27 15 -15 15 -194 -1 -199 -26 -9 2 -38
37 -38 l35 0 0 55 c0 30 4 55 8 55 4 0 20 -25 35 -55 25 -51 29 -55 62 -55 35
0 63 29 37 38 -16 5 -16 184 -1 199 21 21 2 43 -35 43 l-35 0 -3 -62 -3 -63
-35 63 c-32 57 -38 62 -68 62 -20 0 -35 -6 -39 -16z"/>
<path d="M1613 8205 c-57 -40 -56 -213 2 -251 13 -9 49 -16 82 -17 l58 -2 0
75 0 75 -37 3 c-29 2 -39 -1 -48 -18 -9 -16 -8 -21 5 -26 17 -7 20 -30 5 -39
-23 -14 -40 17 -40 75 0 38 5 62 15 70 20 17 33 5 27 -25 -4 -24 -2 -25 38
-25 l43 0 -6 36 c-12 74 -87 109 -144 69z"/>
<path d="M1786 8203 c-4 -9 -2 -21 4 -27 13 -13 13 -193 -1 -198 -5 -2 -7 -11
-4 -21 5 -12 19 -17 50 -17 31 0 45 5 50 17 3 10 1 19 -4 21 -14 5 -14 185 -1
198 22 22 -1 44 -45 44 -31 0 -45 -5 -49 -17z"/>
<path d="M1916 8203 c-4 -9 -2 -21 4 -27 13 -13 13 -193 -1 -198 -5 -2 -7 -11
-4 -21 5 -11 18 -17 41 -17 27 0 34 4 35 20 1 11 3 25 4 30 1 6 3 22 4 38 2
24 5 21 34 -30 30 -54 34 -58 70 -58 30 0 37 4 37 20 0 11 -4 20 -10 20 -6 0
-10 38 -10 94 0 53 4 98 10 101 6 3 10 15 10 26 0 16 -7 19 -40 19 l-39 0 -3
-62 -3 -62 -33 62 c-31 57 -36 62 -67 62 -21 0 -35 -6 -39 -17z"/>
<path d="M2170 8201 c0 -11 5 -23 10 -26 6 -3 10 -48 10 -101 0 -56 -4 -94
-10 -94 -5 0 -10 -9 -10 -20 0 -19 7 -20 96 -20 l95 0 -3 38 c-2 30 -7 38 -25
40 -13 2 -23 -2 -23 -8 0 -6 -12 -10 -27 -8 -20 2 -29 9 -31 26 -3 18 1 22 26
22 18 0 32 6 36 16 12 32 6 43 -26 46 -22 2 -34 9 -36 21 -3 16 2 18 50 15
l53 -3 3 38 3 37 -95 0 c-88 0 -96 -2 -96 -19z"/>
<path d="M2386 8203 c-4 -11 -1 -22 8 -29 22 -16 23 -166 1 -188 -8 -8 -12
-22 -9 -30 5 -13 23 -16 95 -16 l89 0 0 40 c0 33 -3 40 -19 40 -11 0 -23 -4
-26 -10 -3 -5 -17 -10 -31 -10 -19 0 -24 5 -24 25 0 21 5 25 30 25 19 0 30 5
30 14 0 8 3 21 6 30 5 13 -1 16 -30 16 -30 0 -36 4 -36 21 0 20 4 21 50 15
l50 -7 0 41 0 40 -89 0 c-75 0 -90 -3 -95 -17z"/>
<path d="M2600 8201 c0 -11 5 -23 10 -26 6 -3 10 -46 10 -95 0 -49 -4 -92 -10
-95 -5 -3 -10 -15 -10 -26 0 -16 7 -19 40 -19 l40 0 0 50 c0 28 4 50 9 50 5 0
17 -22 27 -50 17 -48 20 -50 55 -50 24 0 39 5 43 16 8 22 8 24 -7 24 -7 0 -21
16 -31 36 -16 34 -16 38 0 55 26 29 23 93 -5 123 -22 23 -32 26 -98 26 -66 0
-73 -2 -73 -19z m128 -73 c-2 -15 -11 -24 -25 -26 -19 -3 -23 1 -23 22 0 21 5
26 26 26 21 0 25 -4 22 -22z"/>
<path d="M2846 8203 c-4 -9 -2 -21 4 -27 13 -13 13 -193 -1 -198 -5 -2 -7 -11
-4 -21 11 -26 91 -24 98 3 3 11 1 20 -4 20 -12 0 -12 187 0 194 5 3 7 15 4 26
-4 16 -14 20 -48 20 -31 0 -45 -5 -49 -17z"/>
<path d="M2973 8204 c-3 -8 -1 -20 6 -27 15 -15 15 -194 -1 -199 -26 -9 2 -38
37 -38 l35 0 0 55 c0 30 3 55 8 55 4 0 20 -25 37 -55 26 -50 33 -55 62 -55 34
0 60 29 35 38 -16 5 -16 184 -1 199 21 21 2 43 -35 43 l-35 0 -3 -62 -3 -63
-34 63 c-31 57 -36 62 -68 62 -21 0 -36 -6 -40 -16z"/>
<path d="M3255 8195 c-23 -22 -25 -32 -25 -110 0 -48 5 -95 11 -107 14 -26 64
-45 119 -44 l45 1 0 75 0 75 -40 0 c-33 0 -41 -4 -43 -22 -2 -13 3 -23 13 -25
14 -3 14 -5 2 -23 -13 -16 -17 -17 -31 -6 -22 18 -22 123 -1 141 19 15 29 7
30 -23 0 -18 7 -23 38 -25 35 -3 37 -2 37 27 0 17 -11 42 -26 60 -34 41 -92
44 -129 6z"/>
<path d="M16900 8170 c0 -5 5 -10 11 -10 5 0 7 5 4 10 -3 6 -8 10 -11 10 -2 0
-4 -4 -4 -10z"/>
<path d="M13563 8160 c-47 -19 -57 -87 -18 -125 29 -30 65 -32 96 -5 29 24 22
25 -20 4 -29 -14 -34 -14 -56 0 -33 22 -42 60 -21 91 19 29 66 34 91 9 9 -9
19 -13 22 -10 10 10 -19 34 -47 40 -14 3 -35 1 -47 -4z"/>
<path d="M13734 8159 c-24 -12 -44 -49 -44 -80 0 -27 44 -69 73 -69 31 0 77
36 77 61 0 16 -7 19 -42 18 l-43 -2 38 -6 c37 -6 37 -7 22 -28 -18 -26 -72
-32 -93 -11 -17 17 -15 74 4 92 20 21 63 20 86 -1 10 -9 18 -11 18 -6 0 28
-62 48 -96 32z"/>
<path d="M14253 8160 c-47 -19 -57 -87 -18 -125 29 -30 65 -32 96 -5 29 24 22
25 -20 4 -29 -14 -34 -14 -56 0 -33 22 -42 60 -21 91 19 29 66 34 91 9 9 -9
19 -13 22 -10 10 10 -19 34 -47 40 -14 3 -35 1 -47 -4z"/>
<path d="M14540 8090 c0 -47 4 -80 10 -80 6 0 10 33 10 80 0 47 -4 80 -10 80
-6 0 -10 -33 -10 -80z"/>
<path d="M14883 8090 c0 -47 2 -66 4 -42 2 23 2 61 0 85 -2 23 -4 4 -4 -43z"/>
<path d="M15849 8141 c-33 -33 -35 -50 -14 -90 22 -43 72 -55 111 -27 27 20
11 31 -19 12 -18 -12 -31 -14 -49 -7 -62 24 -44 121 22 121 13 0 32 -7 42 -17
10 -9 18 -11 18 -5 0 15 -40 42 -63 42 -10 0 -32 -13 -48 -29z"/>
<path d="M10623 8085 c0 -44 2 -63 4 -42 4 37 5 37 48 37 43 0 44 0 48 -37 2
-21 4 -2 4 42 0 44 -2 65 -4 48 -4 -32 -6 -33 -48 -33 -42 0 -44 1 -48 33 -2
17 -4 -4 -4 -48z"/>
<path d="M11720 8085 l0 -75 40 0 c51 0 90 34 90 80 0 45 -31 70 -85 70 l-45
0 0 -75z m100 49 c18 -20 17 -71 -1 -89 -8 -8 -29 -17 -47 -21 l-32 -6 0 66 0
66 34 0 c18 0 39 -7 46 -16z"/>
<path d="M12413 8142 c-6 -11 -8 -23 -3 -28 5 -5 10 -29 12 -54 2 -33 8 -46
21 -48 9 -2 17 1 17 7 0 6 -7 11 -15 11 -23 0 -21 87 3 93 15 4 15 5 0 6 -9 0
-18 8 -20 16 -2 13 -5 12 -15 -3z"/>
<path d="M13009 8143 c-3 -50 4 -109 13 -120 12 -15 38 -17 38 -3 0 6 -7 10
-15 10 -23 0 -21 87 3 93 16 4 16 5 0 6 -10 0 -18 8 -18 16 0 21 -20 19 -21
-2z"/>
<path d="M13870 8086 c0 -44 4 -76 10 -76 6 0 10 16 10 35 0 31 3 35 28 35 40
0 54 13 50 46 -3 27 -6 29 -50 32 l-48 3 0 -75z m86 49 c9 -21 -14 -45 -42
-45 -20 0 -24 5 -24 30 0 27 3 30 30 30 18 0 33 -6 36 -15z"/>
<path d="M14040 8133 c-6 -15 -18 -47 -27 -71 -17 -45 -12 -68 7 -33 15 29 65
28 81 -1 23 -42 20 -2 -5 62 -27 73 -41 84 -56 43z m36 -28 c19 -45 19 -45
-17 -45 -24 0 -30 3 -25 16 3 9 9 27 12 40 8 32 12 30 30 -11z"/>
<path d="M15090 8148 c0 -9 -6 -19 -12 -21 -10 -4 -10 -6 0 -6 8 -1 12 -18 12
-50 0 -47 9 -61 41 -61 17 0 9 18 -11 23 -30 8 -28 74 3 87 16 6 17 9 5 9 -9
1 -22 9 -27 19 -9 15 -10 15 -11 0z"/>
<path d="M16960 8148 c0 -9 -6 -19 -12 -21 -10 -4 -10 -6 0 -6 8 -1 12 -18 12
-50 0 -47 9 -61 41 -61 17 0 9 18 -11 23 -30 8 -28 74 3 87 16 6 17 9 5 9 -9
1 -22 9 -27 19 -9 15 -10 15 -11 0z"/>
<path d="M10786 8115 c-47 -47 15 -132 71 -97 22 14 32 57 19 83 -14 30 -66
38 -90 14z m77 -16 c14 -23 0 -67 -24 -74 -13 -4 -27 0 -40 11 -22 19 -24 36
-8 65 12 24 57 23 72 -2z"/>
<path d="M10921 8065 c2 -60 2 -60 8 -15 8 54 17 70 40 70 28 0 41 -21 43 -69
l1 -46 6 49 c4 31 12 53 24 60 29 18 51 -5 58 -60 l6 -49 1 51 c1 28 -3 55
-10 62 -15 15 -51 15 -66 0 -8 -8 -15 -8 -25 1 -8 6 -31 10 -51 9 l-36 -3 1
-60z"/>
<path d="M11154 8105 c-34 -52 15 -112 71 -87 14 6 25 16 25 22 0 6 -11 3 -24
-5 -19 -13 -29 -14 -45 -5 -40 21 -25 40 29 40 54 0 58 4 34 38 -21 31 -69 30
-90 -3z m74 3 c21 -21 13 -28 -28 -28 -22 0 -40 4 -40 8 0 14 23 32 40 32 9 0
21 -5 28 -12z"/>
<path d="M11892 8118 c-18 -18 -14 -73 6 -91 25 -23 55 -21 77 3 10 11 13 20
8 20 -6 0 -16 -7 -23 -15 -16 -19 -35 -19 -54 1 -26 26 -18 34 34 34 52 0 58
7 40 41 -12 22 -68 27 -88 7z m78 -18 c10 -19 8 -20 -35 -20 -43 0 -45 1 -35
20 6 12 21 20 35 20 14 0 29 -8 35 -20z"/>
<path d="M12020 8040 c0 -53 4 -90 10 -90 6 0 10 18 10 40 0 37 2 40 19 30 44
-23 81 1 81 54 0 39 -15 56 -50 56 -14 0 -31 -5 -38 -12 -9 -9 -12 -9 -12 0 0
7 -4 12 -10 12 -6 0 -10 -37 -10 -90z m94 64 c9 -8 16 -23 16 -31 0 -20 -29
-53 -46 -53 -20 0 -44 29 -44 54 0 43 44 61 74 30z"/>
<path d="M12185 8114 c-21 -21 -19 -67 3 -87 22 -20 53 -22 70 -5 9 9 12 9 12
0 0 -7 5 -12 10 -12 6 0 10 26 10 58 l0 58 -45 2 c-29 1 -49 -4 -60 -14z m73
-6 c35 -35 -4 -101 -47 -79 -32 18 -39 51 -15 75 18 19 45 21 62 4z"/>
<path d="M12332 8065 c1 -56 2 -57 5 -13 3 34 10 52 24 62 20 14 20 14 -5 12
-25 -1 -26 -3 -24 -61z"/>
<path d="M12490 8068 c0 -69 18 -78 22 -12 3 50 22 72 52 61 12 -5 16 -19 16
-57 0 -27 5 -50 10 -50 6 0 10 22 10 50 0 44 3 50 24 56 37 9 46 -2 46 -57 0
-27 5 -49 10 -49 13 0 13 76 0 101 -12 21 -64 27 -75 9 -5 -8 -11 -8 -19 0 -7
5 -32 9 -55 8 l-41 -1 0 -59z"/>
<path d="M12732 8118 c-18 -18 -14 -73 6 -91 25 -23 55 -21 77 3 10 11 13 20
8 20 -6 0 -16 -7 -23 -15 -16 -19 -35 -19 -54 1 -26 26 -18 34 34 34 52 0 58
7 40 41 -12 22 -68 27 -88 7z m78 -18 c10 -19 8 -20 -35 -20 -43 0 -45 1 -35
20 6 12 21 20 35 20 14 0 29 -8 35 -20z"/>
<path d="M12860 8068 c0 -69 18 -78 22 -12 3 50 22 72 52 61 12 -5 16 -19 16
-57 0 -27 5 -50 10 -50 15 0 12 96 -4 109 -7 6 -32 10 -55 9 l-41 -1 0 -59z"/>
<path d="M14396 8108 c-20 -28 -20 -48 0 -76 17 -24 53 -29 72 -10 10 10 15
10 22 -2 7 -10 10 3 10 45 l0 60 -44 3 c-37 2 -47 -1 -60 -20z m79 -12 c18
-26 11 -52 -16 -67 -28 -15 -59 6 -59 39 0 53 47 71 75 28z"/>
<path d="M14606 8114 c-35 -35 -8 -104 42 -104 21 0 57 28 48 37 -3 3 -12 -2
-21 -11 -23 -23 -42 -20 -61 9 -14 21 -15 31 -6 50 12 26 55 35 67 15 3 -5 11
-10 17 -10 7 0 6 6 -2 15 -16 20 -64 19 -84 -1z"/>
<path d="M14730 8092 c0 -63 45 -103 78 -70 9 9 12 9 12 0 0 -7 5 -12 10 -12
6 0 10 27 10 60 0 33 -4 60 -10 60 -5 0 -10 -20 -10 -44 0 -86 -62 -89 -68 -2
-4 55 -22 62 -22 8z"/>
<path d="M14942 8118 c-19 -19 -14 -73 9 -93 17 -16 25 -17 50 -8 16 6 29 7
29 2 0 -5 5 -9 10 -9 6 0 10 26 10 58 l0 58 -48 2 c-27 1 -53 -3 -60 -10z m81
-19 c13 -21 1 -65 -19 -73 -23 -9 -64 20 -64 44 0 44 60 65 83 29z"/>
<path d="M15176 8114 c-36 -35 -7 -104 42 -104 27 0 62 33 62 58 0 52 -68 82
-104 46z m72 -6 c35 -35 -4 -101 -47 -79 -32 18 -39 51 -15 75 18 19 45 21 62
4z"/>
<path d="M15310 8068 c0 -32 4 -58 10 -58 6 0 10 22 10 48 0 41 4 51 23 59 20
10 20 11 -10 10 l-33 0 0 -59z"/>
<path d="M16016 8115 c-47 -47 15 -132 71 -97 22 14 32 57 19 83 -14 30 -66
38 -90 14z m77 -16 c14 -23 0 -67 -24 -74 -13 -4 -27 0 -40 11 -22 19 -24 36
-8 65 12 24 57 23 72 -2z"/>
<path d="M16151 8065 c2 -60 2 -60 8 -15 8 54 17 70 40 70 28 0 41 -21 43 -69
l1 -46 6 49 c4 31 12 53 24 60 29 18 51 -5 58 -60 l6 -49 1 51 c1 28 -3 55
-10 62 -15 15 -51 15 -66 0 -8 -8 -15 -8 -25 1 -8 6 -31 10 -51 9 l-36 -3 1
-60z"/>
<path d="M16381 8065 c2 -60 2 -60 8 -15 8 54 17 70 40 70 28 0 41 -21 43 -69
l1 -46 6 49 c4 31 12 53 24 60 29 18 51 -5 58 -60 l6 -49 1 51 c1 28 -3 55
-10 62 -15 15 -51 15 -66 0 -8 -8 -15 -8 -25 1 -8 6 -31 10 -51 9 l-36 -3 1
-60z"/>
<path d="M16611 8088 c0 -31 4 -52 15 -62 18 -19 50 -21 60 -5 4 8 9 7 15 -2
5 -9 8 11 7 51 -1 56 -2 58 -5 18 -4 -50 -26 -74 -57 -62 -16 6 -22 23 -29 79
-3 20 -5 14 -6 -17z"/>
<path d="M16762 8065 c1 -53 2 -55 5 -15 5 50 17 70 44 70 23 0 32 -15 40 -70
l6 -45 2 51 c1 61 -11 75 -63 72 l-36 -3 2 -60z"/>
<path d="M16903 8070 c0 -36 2 -50 4 -32 2 17 2 47 0 65 -2 17 -4 3 -4 -33z"/>
<path d="M17030 8123 c0 -6 9 -33 20 -59 17 -38 19 -53 10 -77 -12 -37 -13
-44 -1 -31 9 9 71 158 71 171 0 16 -19 -15 -30 -49 -6 -21 -15 -38 -20 -38 -5
0 -14 17 -20 38 -13 39 -30 65 -30 45z"/>
<path d="M3286 5805 c-19 -20 -20 -26 -3 -49 27 -38 95 2 71 42 -15 23 -48 27
-68 7z"/>
<path d="M5632 5808 c-27 -27 -6 -68 34 -68 33 0 49 25 36 55 -13 27 -49 34
-70 13z"/>
<path d="M6816 5805 c-19 -20 -20 -26 -3 -49 27 -38 95 2 71 42 -15 23 -48 27
-68 7z"/>
<path d="M2920 5625 l0 -165 35 0 35 0 0 165 0 165 -35 0 -35 0 0 -165z"/>
<path d="M3050 5625 l0 -165 40 0 40 0 0 165 0 165 -40 0 -40 0 0 -165z"/>
<path d="M2675 5758 c-3 -7 -27 -75 -55 -151 -27 -76 -50 -141 -50 -143 0 -2
18 -4 39 -4 36 0 40 3 46 30 6 29 8 30 67 30 57 0 60 -1 71 -30 10 -26 16 -30
50 -30 33 0 38 3 32 18 -4 9 -26 71 -50 137 -24 66 -46 128 -50 138 -9 21 -93
25 -100 5z m85 -175 c0 -8 -14 -13 -35 -13 -40 0 -42 6 -19 75 l17 48 18 -49
c11 -27 19 -55 19 -61z"/>
<path d="M4780 5615 l0 -155 90 0 90 0 0 30 c0 30 -1 30 -55 30 l-55 0 0 35 0
35 50 0 c49 0 50 1 50 30 0 29 -1 30 -50 30 l-50 0 0 35 0 35 55 0 c52 0 55 1
55 25 0 25 -1 25 -90 25 l-90 0 0 -155z"/>
<path d="M3280 5585 l0 -125 35 0 35 0 0 125 0 125 -35 0 -35 0 0 -125z"/>
<path d="M3410 5585 l0 -125 40 0 40 0 0 83 c0 88 8 107 46 107 38 0 54 -36
54 -117 l0 -73 36 0 36 0 -4 101 c-3 96 -4 102 -31 125 -33 28 -82 32 -115 8
-20 -14 -22 -14 -22 0 0 12 -10 16 -40 16 l-40 0 0 -125z"/>
<path d="M3858 5694 c-78 -42 -76 -178 2 -219 58 -30 140 -12 174 37 10 14 16
44 16 76 0 48 -4 58 -34 88 -30 30 -40 34 -82 34 -27 -1 -61 -7 -76 -16z m104
-61 c26 -23 24 -78 -4 -97 -30 -21 -44 -20 -68 4 -54 54 15 145 72 93z"/>
<path d="M4100 5585 l0 -125 35 0 35 0 0 79 c0 86 12 111 54 111 38 0 46 -19
46 -107 l0 -83 35 0 35 0 0 100 c0 94 -2 103 -25 125 -29 29 -88 34 -123 9
-20 -14 -22 -14 -22 0 0 12 -10 16 -35 16 l-35 0 0 -125z"/>
<path d="M4429 5682 c-25 -23 -33 -38 -36 -78 -9 -90 39 -144 128 -144 34 0
47 6 78 38 l36 37 -39 3 c-21 2 -43 -1 -49 -7 -18 -18 -65 -13 -77 8 -5 11
-10 22 -10 25 0 3 39 7 88 8 86 3 87 3 84 28 -7 75 -48 110 -126 110 -36 0
-52 -6 -77 -28z m119 -44 c22 -22 13 -28 -38 -28 -27 0 -50 4 -50 8 0 16 25
32 50 32 14 0 31 -5 38 -12z"/>
<path d="M5020 5585 l0 -125 35 0 35 0 0 79 c0 86 12 111 54 111 38 0 46 -19
46 -107 l0 -83 35 0 35 0 0 100 c0 94 -2 103 -25 125 -29 29 -88 34 -123 9
-20 -14 -22 -14 -22 0 0 12 -10 16 -35 16 l-35 0 0 -125z"/>
<path d="M5357 5699 c-41 -24 -62 -130 -36 -182 28 -54 100 -74 147 -41 21 15
22 14 22 -15 0 -53 -45 -77 -86 -46 -22 17 -84 20 -84 4 0 -62 117 -102 189
-65 45 24 55 58 59 214 l4 142 -41 0 c-30 0 -41 -4 -41 -16 0 -14 -2 -14 -22
0 -25 18 -84 21 -111 5z m117 -68 c26 -29 18 -82 -15 -100 -24 -13 -29 -13
-53 2 -19 13 -26 26 -26 49 0 60 57 90 94 49z"/>
<path d="M5630 5585 l0 -125 35 0 35 0 0 125 0 125 -35 0 -35 0 0 -125z"/>
<path d="M5760 5585 l0 -125 34 0 34 0 3 85 c4 90 12 105 55 105 36 0 44 -20
44 -107 l0 -83 40 0 40 0 0 73 c0 89 -14 142 -43 162 -28 19 -86 19 -115 -1
-20 -14 -22 -14 -22 0 0 12 -10 16 -35 16 l-35 0 0 -125z"/>
<path d="M6089 5682 c-25 -23 -33 -38 -36 -78 -9 -90 39 -144 128 -144 34 0
47 6 78 38 l36 37 -39 3 c-21 2 -43 -1 -49 -7 -18 -18 -65 -13 -77 8 -5 11
-10 22 -10 25 0 3 39 7 88 8 86 3 87 3 84 28 -7 75 -48 110 -126 110 -36 0
-52 -6 -77 -28z m119 -44 c22 -22 13 -28 -38 -28 -27 0 -50 4 -50 8 0 16 25
32 50 32 14 0 31 -5 38 -12z"/>
<path d="M6364 5676 c-31 -31 -34 -40 -34 -91 0 -52 3 -60 35 -92 34 -34 38
-35 90 -31 56 5 105 35 105 65 0 16 -75 18 -85 3 -9 -14 -48 -13 -63 2 -30 30
-13 38 73 38 l85 0 0 36 c0 28 -8 44 -34 70 -30 30 -40 34 -86 34 -46 0 -56
-4 -86 -34z m124 -38 c22 -22 13 -28 -38 -28 -27 0 -50 4 -50 8 0 16 25 32 50
32 14 0 31 -5 38 -12z"/>
<path d="M6620 5585 l0 -125 35 0 35 0 0 66 c0 81 11 104 50 104 28 0 30 2 30
40 0 46 -13 51 -54 19 l-26 -20 0 20 c0 17 -6 21 -35 21 l-35 0 0 -125z"/>
<path d="M6810 5585 l0 -125 35 0 35 0 0 125 0 125 -35 0 -35 0 0 -125z"/>
<path d="M6940 5585 l0 -125 40 0 40 0 0 83 c0 88 8 107 46 107 38 0 54 -36
54 -117 l0 -73 36 0 36 0 -4 101 c-3 96 -4 102 -31 125 -33 28 -82 32 -115 8
-20 -14 -22 -14 -22 0 0 12 -10 16 -40 16 l-40 0 0 -125z"/>
<path d="M7269 5682 c-55 -49 -51 -156 9 -202 30 -24 94 -27 112 -5 18 22 30
18 30 -8 0 -55 -53 -84 -96 -52 -21 16 -84 20 -84 5 0 -5 13 -24 29 -42 24
-27 36 -32 88 -36 56 -4 63 -2 94 26 l34 30 3 156 3 156 -35 0 c-26 0 -36 -4
-36 -16 0 -14 -2 -14 -22 0 -36 26 -93 20 -129 -12z m131 -52 c11 -11 20 -31
20 -45 0 -30 -32 -65 -59 -65 -11 0 -29 12 -41 27 -48 62 25 138 80 83z"/>
<path d="M14742 5410 c3 -18 -1 -35 -9 -41 -7 -6 -13 -15 -13 -20 0 -15 28
-10 34 7 10 26 7 84 -5 84 -7 0 -10 -12 -7 -30z"/>
<path d="M4750 5410 c0 -19 7 -20 260 -20 253 0 260 1 260 20 0 19 -7 20 -260
20 -253 0 -260 -1 -260 -20z"/>
<path d="M5610 5410 c0 -20 7 -20 790 -20 783 0 790 0 790 20 0 20 -7 20 -790
20 -783 0 -790 0 -790 -20z"/>
<path d="M14801 5337 c2 -1 13 -9 24 -17 19 -14 19 -14 6 3 -7 9 -18 17 -24
17 -6 0 -8 -1 -6 -3z"/>
<path d="M3525 5245 c-14 -13 -25 -36 -25 -50 0 -16 -6 -25 -15 -25 -10 0 -15
-10 -15 -30 0 -20 5 -30 15 -30 12 0 15 -17 15 -95 l0 -95 35 0 35 0 0 95 c0
88 1 95 20 95 16 0 20 7 20 30 0 23 -4 30 -20 30 -11 0 -20 4 -20 10 0 5 9 15
20 22 12 8 20 24 20 40 0 24 -4 28 -30 28 -19 0 -40 -9 -55 -25z"/>
<path d="M11781 5248 c-79 -21 -145 -89 -177 -185 -18 -52 -14 -99 12 -138 15
-23 19 -24 26 -11 15 26 66 20 80 -8 20 -44 -15 -82 -53 -57 -24 14 -24 9 1
-39 11 -22 27 -40 35 -40 8 0 15 -6 15 -13 0 -7 10 -27 23 -43 20 -27 26 -29
74 -26 41 3 58 -1 78 -16 33 -26 62 -18 67 19 4 26 0 31 -46 54 -68 34 -126
75 -126 90 0 7 -7 18 -15 25 -8 7 -15 24 -15 37 0 14 -10 42 -21 63 -22 38
-22 39 -3 71 29 48 95 78 174 79 74 0 80 -3 108 -48 l20 -33 6 25 c7 27 20 34
31 16 12 -20 25 -9 25 20 0 70 -62 133 -146 149 -78 15 -136 18 -173 9z"/>
<path d="M14712 5230 c0 -19 2 -27 5 -17 2 9 2 25 0 35 -3 9 -5 1 -5 -18z"/>
<path d="M2870 5085 l0 -165 35 0 35 0 0 165 0 165 -35 0 -35 0 0 -165z"/>
<path d="M2590 5075 l0 -155 35 0 34 0 3 58 3 57 59 5 c72 7 96 30 96 97 0 33
-6 50 -25 68 -22 23 -32 25 -115 25 l-90 0 0 -155z m134 95 c18 -7 26 -17 26
-34 0 -28 -25 -46 -64 -46 -23 0 -26 4 -26 38 0 54 12 62 64 42z"/>
<path d="M3320 5200 c0 -20 -5 -30 -15 -30 -10 0 -15 -10 -15 -30 0 -20 5 -30
15 -30 12 0 15 -14 15 -69 0 -85 16 -110 78 -118 41 -6 42 -5 42 23 0 21 -7
32 -22 39 -19 8 -23 19 -26 68 -3 55 -2 57 23 57 21 0 25 5 25 30 0 25 -4 30
-25 30 -21 0 -25 5 -25 30 0 28 -3 30 -35 30 -32 0 -35 -2 -35 -30z"/>
<path d="M3037 5159 c-41 -24 -62 -130 -36 -182 28 -54 100 -74 147 -41 20 14
22 14 22 0 0 -12 10 -16 40 -16 l40 0 0 125 0 125 -40 0 c-30 0 -40 -4 -40
-16 0 -14 -2 -14 -22 0 -25 18 -84 21 -111 5z m117 -68 c26 -29 18 -82 -15
-100 -24 -13 -29 -13 -53 2 -19 13 -26 26 -26 49 0 60 57 90 94 49z"/>
<path d="M3698 5154 c-78 -42 -76 -178 2 -219 58 -30 140 -12 174 37 10 14 16
44 16 76 0 48 -4 58 -34 88 -30 30 -40 34 -82 34 -27 -1 -61 -7 -76 -16z m104
-61 c26 -23 24 -78 -4 -97 -30 -21 -44 -20 -68 4 -54 54 15 145 72 93z"/>
<path d="M3940 5045 l0 -125 35 0 35 0 0 66 c0 81 11 104 50 104 28 0 30 2 30
40 0 46 -13 51 -54 19 l-26 -20 0 20 c0 17 -6 21 -35 21 l-35 0 0 -125z"/>
<path d="M4130 5045 l0 -125 35 0 35 0 0 74 c0 58 4 79 19 97 16 20 23 22 47
14 29 -10 29 -12 32 -98 l3 -87 39 0 40 0 0 83 c0 88 8 107 46 107 38 0 54
-36 54 -117 l0 -73 36 0 36 0 -4 101 c-3 96 -4 102 -31 125 -35 30 -94 32
-128 5 -24 -19 -25 -19 -48 0 -28 23 -88 25 -119 3 -20 -14 -22 -14 -22 0 0
12 -10 16 -35 16 l-35 0 0 -125z"/>
<path d="M14596 5055 c-7 -19 5 -19 30 0 19 14 19 14 -2 15 -12 0 -24 -7 -28
-15z"/>
<path d="M11870 5010 c0 -5 4 -10 9 -10 6 0 13 5 16 10 3 6 -1 10 -9 10 -9 0
-16 -4 -16 -10z"/>
<path d="M11915 4960 c3 -5 8 -10 11 -10 2 0 4 5 4 10 0 6 -5 10 -11 10 -5 0
-7 -4 -4 -10z"/>
<path d="M14605 4930 c-96 -12 -260 -41 -282 -50 -18 -8 -23 -17 -23 -47 1
-72 16 -119 50 -157 l33 -36 71 5 c39 3 96 10 126 15 30 5 94 15 143 21 48 6
90 15 93 20 13 22 -17 155 -44 194 -25 36 -32 40 -72 40 -25 1 -67 -2 -95 -5z
m35 -89 c0 -22 -4 -42 -8 -45 -7 -4 -114 -20 -197 -29 -17 -2 -20 4 -20 43 l0
45 70 11 c39 7 89 12 113 13 l42 1 0 -39z m-30 -121 c0 -15 -32 -27 -65 -25
-16 1 -34 0 -39 -3 -6 -3 -23 -5 -38 -5 -15 1 -40 2 -54 2 -40 2 -17 21 24 20
20 0 60 4 87 9 70 13 85 13 85 2z"/>
<path d="M11660 4911 c0 -5 9 -19 20 -32 19 -23 19 -23 20 -3 0 20 -17 44 -32
44 -4 0 -8 -4 -8 -9z"/>
<path d="M11975 4840 c3 -5 12 -10 20 -10 8 0 17 5 20 10 4 6 -5 10 -20 10
-15 0 -24 -4 -20 -10z"/>
<path d="M7280 4620 c0 -5 5 -10 10 -10 6 0 10 5 10 10 0 6 -4 10 -10 10 -5 0
-10 -4 -10 -10z"/>
<path d="M4220 4540 c0 -85 17 -111 22 -34 3 50 22 72 52 61 12 -5 16 -19 16
-57 0 -27 5 -50 10 -50 6 0 10 22 10 49 0 57 -16 75 -60 69 -26 -4 -30 -1 -30
19 0 13 -4 23 -10 23 -6 0 -10 -33 -10 -80z"/>
<path d="M5146 4607 c-29 -21 -17 -58 24 -72 24 -8 36 -19 38 -33 3 -18 -2
-22 -26 -22 -17 0 -32 6 -35 13 -2 6 -8 9 -12 5 -14 -13 16 -38 45 -38 61 0
66 55 8 83 -21 10 -38 25 -38 33 0 21 29 29 52 15 26 -16 34 -8 13 13 -20 19
-45 21 -69 3z"/>
<path d="M5780 4540 c0 -47 4 -80 10 -80 6 0 10 23 10 50 0 38 4 52 16 57 30
11 49 -11 52 -61 2 -25 7 -46 13 -46 12 0 12 62 -1 95 -9 24 -15 27 -45 23
-31 -4 -35 -1 -35 19 0 13 -4 23 -10 23 -6 0 -10 -33 -10 -80z"/>
<path d="M6380 4540 c0 -94 18 -108 22 -18 l3 63 40 -63 c22 -34 43 -62 48
-62 4 0 7 36 7 81 0 51 -4 78 -10 74 -5 -3 -10 -32 -10 -63 l0 -57 -41 63
c-23 34 -46 62 -50 62 -5 0 -9 -36 -9 -80z"/>
<path d="M7430 4597 c0 -20 -4 -23 -33 -19 -41 5 -67 -18 -67 -57 0 -40 27
-60 78 -58 l42 1 0 78 c0 45 -4 78 -10 78 -5 0 -10 -10 -10 -23z m-11 -41 c7
-8 11 -27 9 -43 -3 -25 -7 -28 -38 -28 -31 0 -35 3 -38 28 -4 32 13 57 38 57
10 0 23 -6 29 -14z"/>
<path d="M8862 4611 c-8 -4 -12 -19 -10 -32 2 -13 -5 -32 -14 -41 -22 -22 -23
-42 -2 -62 18 -19 65 -21 82 -4 9 9 15 9 24 0 19 -19 33 -14 15 6 -11 12 -13
22 -7 32 16 25 11 34 -9 16 -17 -16 -20 -15 -50 19 -34 40 -32 60 5 51 27 -7
33 8 8 18 -20 8 -26 7 -42 -3z m37 -95 l23 -24 -21 -11 c-39 -21 -79 17 -49
47 17 17 21 15 47 -12z"/>
<path d="M2590 4570 c11 -21 20 -55 20 -75 0 -19 5 -35 10 -35 6 0 10 11 10
25 0 14 11 48 25 75 14 28 21 50 15 50 -5 0 -18 -17 -29 -37 l-19 -38 -18 38
c-10 20 -21 37 -26 37 -5 0 1 -18 12 -40z"/>
<path d="M3400 4535 l0 -75 43 1 c38 1 39 2 12 8 -29 6 -30 8 -33 74 -4 91
-22 85 -22 -8z"/>
<path d="M4850 4596 c0 -8 -6 -17 -12 -19 -10 -4 -10 -6 0 -6 7 -1 12 -17 12
-44 0 -24 5 -48 12 -55 15 -15 38 -16 38 -2 0 6 -7 10 -15 10 -23 0 -21 87 3
93 16 4 16 5 0 6 -10 0 -18 8 -18 16 0 8 -4 15 -10 15 -5 0 -10 -6 -10 -14z"/>
<path d="M5980 4535 c0 -43 4 -75 10 -75 6 0 10 16 10 35 0 32 2 35 31 35 17
0 28 4 24 10 -3 6 -17 10 -31 10 -19 0 -24 5 -24 24 0 21 5 25 38 29 34 3 33
4 -10 5 l-48 2 0 -75z"/>
<path d="M6690 4595 c0 -8 -6 -15 -12 -15 -10 0 -10 -2 -1 -8 6 -4 13 -30 15
-57 3 -43 6 -50 26 -53 12 -2 22 1 22 7 0 6 -7 11 -15 11 -23 0 -21 87 3 93
16 4 16 5 0 6 -10 0 -18 8 -18 16 0 8 -4 15 -10 15 -5 0 -10 -7 -10 -15z"/>
<path d="M7122 4602 c2 -4 14 -38 27 -75 14 -37 30 -67 37 -67 6 0 22 28 34
63 13 34 25 68 27 75 3 6 1 12 -4 12 -5 0 -17 -24 -27 -52 -11 -29 -22 -57
-26 -61 -4 -5 -17 19 -30 52 -12 34 -27 61 -32 61 -5 0 -8 -4 -6 -8z"/>
<path d="M7830 4535 l0 -75 43 1 c38 1 39 2 12 8 -29 6 -30 8 -33 74 -4 91
-22 85 -22 -8z"/>
<path d="M8210 4595 c0 -8 -6 -15 -12 -15 -10 0 -10 -2 -1 -8 6 -4 13 -30 15
-57 3 -43 6 -50 26 -53 12 -2 22 1 22 7 0 6 -7 11 -15 11 -23 0 -21 87 3 93
16 4 16 5 0 6 -10 0 -18 8 -18 16 0 8 -4 15 -10 15 -5 0 -10 -7 -10 -15z"/>
<path d="M13004 4568 l-19 -23 23 19 c21 18 27 26 19 26 -2 0 -12 -10 -23 -22z"/>
<path d="M2717 4562 c-34 -38 -8 -102 42 -102 50 0 76 53 51 101 -14 25 -71
26 -93 1z m72 -6 c7 -8 11 -27 9 -43 -2 -23 -9 -29 -32 -31 -31 -4 -46 10 -46
44 0 40 45 59 69 30z"/>
<path d="M2850 4538 c0 -60 11 -72 65 -74 l45 -2 0 59 c0 33 -4 59 -10 59 -5
0 -10 -20 -10 -45 0 -32 -5 -47 -18 -54 -31 -17 -52 5 -52 54 0 25 -4 45 -10
45 -5 0 -10 -19 -10 -42z"/>
<path d="M3060 4518 c0 -32 4 -58 10 -58 6 0 10 23 10 50 0 38 4 52 16 57 30
11 49 -11 52 -61 2 -25 7 -46 13 -46 12 0 12 62 -1 94 -8 23 -15 26 -55 24
l-45 -1 0 -59z"/>
<path d="M3207 4562 c-34 -38 -8 -102 42 -102 50 0 76 53 51 101 -14 25 -71
26 -93 1z m72 -6 c7 -8 11 -27 9 -43 -2 -23 -9 -29 -32 -31 -31 -4 -46 10 -46
44 0 40 45 59 69 30z"/>
<path d="M3513 4568 c-31 -40 -19 -94 22 -104 59 -15 103 42 70 92 -17 27 -75
34 -92 12z m72 -14 c21 -21 16 -53 -10 -70 -18 -12 -24 -11 -43 2 -26 18 -28
46 -6 68 20 20 38 20 59 0z"/>
<path d="M3640 4518 c0 -69 18 -78 22 -12 3 50 22 72 52 61 12 -5 16 -19 16
-57 0 -27 5 -50 10 -50 15 0 12 96 -4 109 -7 6 -32 10 -55 9 l-41 -1 0 -59z"/>
<path d="M3797 4562 c-21 -23 -22 -51 -1 -81 14 -19 23 -22 51 -18 31 5 34 4
31 -16 -4 -26 -41 -35 -64 -16 -8 6 -18 9 -22 5 -10 -11 28 -36 54 -36 41 0
54 25 54 104 l0 73 -43 1 c-31 2 -49 -3 -60 -16z m72 -6 c7 -8 11 -27 9 -43
-2 -23 -9 -29 -32 -31 -16 -2 -32 2 -37 10 -30 46 26 105 60 64z"/>
<path d="M3950 4564 c-20 -23 -16 -75 5 -90 25 -19 60 -18 80 2 22 23 12 29
-17 10 -22 -14 -26 -14 -46 0 -31 21 -19 34 34 34 36 0 44 3 44 18 0 10 -5 23
-12 30 -17 17 -73 15 -88 -4z m64 0 c33 -13 17 -34 -24 -34 -38 0 -40 2 -30
20 11 21 27 25 54 14z"/>
<path d="M4080 4518 c0 -32 4 -58 10 -58 6 0 10 20 10 44 0 34 5 47 23 59 22
15 22 15 -10 15 l-33 -1 0 -59z"/>
<path d="M4377 4562 c-21 -23 -22 -51 -2 -80 13 -17 24 -21 60 -20 l45 2 0 57
0 56 -43 1 c-31 2 -49 -3 -60 -16z m72 -6 c7 -8 11 -27 9 -43 -2 -23 -9 -29
-32 -31 -16 -2 -32 2 -37 10 -30 46 26 105 60 64z"/>
<path d="M4512 4572 c2 -4 12 -31 22 -60 11 -29 25 -52 32 -52 6 0 21 25 33
56 24 63 24 64 13 64 -5 0 -14 -18 -21 -40 -16 -55 -27 -57 -47 -5 -9 25 -21
45 -26 45 -5 0 -8 -4 -6 -8z"/>
<path d="M4656 4564 c-37 -37 -7 -104 46 -104 27 0 56 25 44 37 -4 4 -10 3
-14 -3 -12 -18 -40 -23 -58 -10 -26 20 -8 36 42 36 48 0 52 5 28 38 -18 26
-65 30 -88 6z m72 -6 c21 -21 13 -28 -28 -28 -22 0 -40 4 -40 8 0 14 23 32 40
32 9 0 21 -5 28 -12z"/>
<path d="M4937 4562 c-34 -38 -8 -102 42 -102 50 0 76 53 51 101 -14 25 -71
26 -93 1z m72 -6 c7 -8 11 -27 9 -43 -2 -23 -9 -29 -32 -31 -31 -4 -46 10 -46
44 0 40 45 59 69 30z"/>
<path d="M5272 4568 c-17 -17 -15 -74 4 -92 19 -20 54 -20 80 -2 26 20 11 32
-17 12 -25 -17 -59 -6 -59 19 0 11 12 15 45 15 37 0 45 3 45 18 0 27 -20 42
-55 42 -17 0 -36 -5 -43 -12z m62 -4 c30 -12 18 -34 -19 -34 -24 0 -35 5 -35
14 0 21 27 31 54 20z"/>
<path d="M5412 4568 c-17 -17 -15 -74 4 -92 18 -19 55 -21 72 -4 9 9 12 9 12
0 0 -7 5 -12 10 -12 6 0 10 26 10 58 l0 58 -48 2 c-27 1 -53 -3 -60 -10z m69
-8 c38 -21 18 -80 -28 -80 -33 0 -49 35 -28 66 17 27 27 29 56 14z"/>
<path d="M5560 4518 c0 -32 4 -58 10 -58 6 0 10 23 10 50 0 37 4 50 14 50 8 0
17 4 21 9 3 5 -8 9 -25 9 -30 -1 -30 -1 -30 -60z"/>
<path d="M5650 4564 c-8 -8 -13 -29 -13 -46 0 -54 62 -78 98 -38 22 24 13 26
-19 5 -21 -14 -25 -14 -46 3 -43 35 -4 102 42 73 22 -13 34 -9 23 8 -10 17
-71 13 -85 -5z"/>
<path d="M6102 4568 c-17 -17 -15 -74 4 -92 21 -22 60 -20 84 4 24 24 25 48 4
78 -17 25 -71 31 -92 10z m69 -8 c26 -14 24 -55 -3 -74 -41 -29 -81 17 -53 60
17 27 27 29 56 14z"/>
<path d="M6240 4518 c0 -32 4 -58 10 -58 6 0 10 20 10 44 0 34 5 47 23 59 22
15 22 15 -10 15 l-33 -1 0 -59z"/>
<path d="M6553 4568 c-31 -40 -19 -94 22 -104 59 -15 103 42 70 92 -17 27 -75
34 -92 12z m72 -14 c21 -21 16 -53 -10 -70 -18 -12 -24 -11 -43 2 -26 18 -28
46 -6 68 20 20 38 20 59 0z"/>
<path d="M6776 4564 c-37 -37 -7 -104 46 -104 27 0 56 25 44 37 -4 4 -10 3
-14 -3 -12 -18 -40 -23 -58 -10 -26 20 -8 36 42 36 48 0 52 5 28 38 -18 26
-65 30 -88 6z m72 -6 c21 -21 13 -28 -28 -28 -22 0 -40 4 -40 8 0 14 23 32 40
32 9 0 21 -5 28 -12z"/>
<path d="M6910 4565 c-16 -19 -5 -34 38 -52 34 -14 35 -16 18 -29 -13 -9 -24
-10 -37 -4 -26 14 -33 12 -19 -5 23 -27 80 -15 80 17 0 12 -12 24 -35 34 -19
8 -35 19 -35 24 0 17 29 23 45 10 17 -14 31 -8 20 9 -9 16 -61 13 -75 -4z"/>
<path d="M7280 4520 c0 -33 4 -60 10 -60 6 0 10 27 10 60 0 33 -4 60 -10 60
-6 0 -10 -27 -10 -60z"/>
<path d="M7496 4564 c-37 -37 -7 -104 46 -104 27 0 56 25 44 37 -4 4 -10 3
-14 -3 -12 -18 -40 -23 -58 -10 -26 20 -8 36 42 36 48 0 52 5 28 38 -18 26
-65 30 -88 6z m72 -6 c21 -21 13 -28 -28 -28 -22 0 -40 4 -40 8 0 14 23 32 40
32 9 0 21 -5 28 -12z"/>
<path d="M7637 4562 c-36 -40 -9 -102 45 -102 49 0 78 69 42 104 -21 22 -67
20 -87 -2z m72 -6 c7 -8 11 -27 9 -43 -3 -25 -7 -28 -38 -28 -31 0 -35 3 -38
28 -4 32 13 57 38 57 10 0 23 -6 29 -14z"/>
<path d="M7937 4562 c-21 -23 -22 -51 -1 -80 17 -24 62 -30 82 -10 20 20 13
29 -10 14 -16 -10 -30 -11 -46 -5 -37 14 -20 34 31 37 51 3 60 17 29 45 -24
22 -65 21 -85 -1z m71 -4 c21 -21 13 -28 -28 -28 -22 0 -40 4 -40 8 0 14 23
32 40 32 9 0 21 -5 28 -12z"/>
<path d="M8077 4562 c-35 -38 -8 -102 42 -102 29 0 60 25 47 37 -4 4 -11 2
-15 -6 -5 -7 -21 -11 -37 -9 -26 3 -29 7 -29 37 0 42 25 62 55 43 27 -16 35
-15 20 3 -17 21 -63 19 -83 -3z"/>
<path d="M8291 4534 c-1 -61 11 -75 63 -72 l36 3 -1 60 c-1 61 -3 60 -14 -7
-5 -34 -9 -38 -35 -38 -31 0 -35 7 -43 75 -2 18 -5 9 -6 -21z"/>
<path d="M8430 4518 c0 -32 4 -58 10 -58 6 0 10 20 10 44 0 34 5 47 23 59 22
15 22 15 -10 15 l-33 -1 0 -59z"/>
<path d="M8522 4568 c-17 -17 -15 -74 4 -92 19 -20 54 -20 80 -2 26 20 11 32
-17 12 -25 -17 -59 -6 -59 19 0 11 12 15 45 15 37 0 45 3 45 18 0 27 -20 42
-55 42 -17 0 -36 -5 -43 -12z m62 -4 c30 -12 18 -34 -19 -34 -24 0 -35 5 -35
14 0 21 27 31 54 20z"/>
<path d="M8654 4565 c-10 -25 3 -43 35 -50 32 -7 42 -29 18 -38 -8 -3 -20 -1
-28 4 -22 14 -33 11 -19 -6 24 -28 80 -13 80 23 0 7 -16 20 -35 28 -19 8 -35
19 -35 24 0 16 30 24 43 11 17 -17 31 -13 17 4 -7 8 -26 15 -42 15 -16 0 -31
-6 -34 -15z"/>
<path d="M12882 4528 c-6 -18 -13 -51 -17 -73 -9 -61 -15 -75 -31 -75 -22 0
-17 -30 12 -67 30 -39 44 -42 44 -9 0 18 18 37 77 80 43 31 73 56 67 56 -5 0
-15 -5 -22 -12 -15 -15 -81 -38 -110 -38 -22 0 -23 2 -17 63 3 34 8 72 11 85
7 33 -3 26 -14 -10z"/>
<path d="M11717 4505 c48 -62 80 -88 88 -75 4 6 5 13 4 14 -2 2 -31 25 -64 52
l-60 48 32 -39z"/>
<path d="M13000 4520 c-6 -11 -7 -20 -3 -20 5 0 14 9 21 20 7 11 8 20 2 20 -5
0 -14 -9 -20 -20z"/>
<path d="M13042 4499 c-19 -17 -31 -33 -28 -36 3 -4 7 -4 9 -2 1 2 15 19 31
37 37 40 31 41 -12 1z"/>
<path d="M11858 4493 c-30 -36 -30 -47 0 -19 18 17 32 31 32 33 0 9 -19 1 -32
-14z"/>
<path d="M7016 4468 c-10 -38 -6 -45 9 -18 17 29 18 40 6 40 -5 0 -11 -10 -15
-22z"/>
<path d="M13059 4463 c-13 -16 -12 -17 4 -4 16 13 21 21 13 21 -2 0 -10 -8
-17 -17z"/>
<path d="M14551 4376 c7 -8 98 -10 105 -3 4 4 -19 7 -51 7 -32 0 -56 -2 -54
-4z"/>
<path d="M14740 4370 c0 -5 5 -10 11 -10 5 0 7 5 4 10 -3 6 -8 10 -11 10 -2 0
-4 -4 -4 -10z"/>
<path d="M14802 4368 c3 -7 17 -14 31 -16 21 -3 26 0 21 12 -7 19 -58 22 -52
4z"/>
<path d="M14439 4366 c-2 -3 -56 -7 -119 -10 -113 -5 -159 -10 -211 -21 -15
-4 -61 -6 -103 -7 -85 -1 -80 4 -89 -85 -3 -25 0 -46 7 -52 10 -8 148 -18 556
-40 74 -5 200 -4 280 0 80 4 205 11 278 15 73 4 135 11 138 16 3 4 -34 8 -83
8 -103 1 -310 19 -520 47 -43 5 -43 5 -43 47 0 73 -8 86 -49 86 -21 0 -40 -2
-42 -4z"/>
<path d="M4345 4280 c-3 -5 1 -10 9 -10 9 0 16 5 16 10 0 6 -4 10 -9 10 -6 0
-13 -4 -16 -10z"/>
<path d="M3723 4270 c-72 -29 -44 -150 35 -150 16 0 35 -7 42 -15 7 -8 17 -15
23 -15 5 0 2 9 -8 20 -17 19 -17 21 -2 38 27 30 22 87 -9 111 -29 23 -46 25
-81 11z m77 -26 c18 -21 17 -72 -2 -91 -22 -21 -68 -20 -85 3 -18 24 -16 69 3
88 20 20 68 21 84 0z"/>
<path d="M5980 4260 c-27 -27 -13 -54 35 -70 38 -13 45 -34 16 -49 -13 -7 -24
-6 -37 4 -28 21 -40 18 -19 -5 22 -24 58 -26 80 -4 24 24 14 47 -30 70 -47 24
-52 48 -12 52 15 2 27 -1 27 -7 0 -6 7 -11 17 -11 14 0 14 2 -2 20 -23 26 -50
25 -75 0z"/>
<path d="M7000 4200 c0 -47 4 -80 10 -80 6 0 10 33 10 80 0 47 -4 80 -10 80
-6 0 -10 -33 -10 -80z"/>
<path d="M12173 4264 c-4 -10 -7 -39 -8 -64 l0 -44 110 -34 c204 -61 218 -64
280 -59 62 4 124 30 183 74 l33 25 -31 34 c-16 19 -30 38 -30 42 0 4 -4 13 -8
20 -6 9 -26 4 -80 -23 -81 -39 -99 -41 -192 -19 -36 8 -101 19 -145 25 -51 7
-84 16 -92 26 -11 14 -13 14 -20 -3z"/>
<path d="M2580 4196 c0 -44 4 -76 10 -76 6 0 10 15 10 34 0 32 3 35 31 38 71
7 63 71 -10 76 l-41 3 0 -75z m75 34 c0 -20 -6 -26 -27 -28 -25 -3 -28 0 -28
28 0 28 3 31 28 28 21 -2 27 -8 27 -28z"/>
<path d="M2980 4256 c0 -8 -6 -17 -12 -19 -10 -4 -10 -6 0 -6 7 -1 12 -17 12
-44 0 -24 5 -48 12 -55 15 -15 38 -16 38 -2 0 6 -7 10 -15 10 -23 0 -21 87 3
93 16 4 16 5 0 6 -10 0 -18 8 -18 16 0 8 -4 15 -10 15 -5 0 -10 -6 -10 -14z"/>
<path d="M3135 4220 c14 -27 25 -61 25 -75 0 -14 5 -25 10 -25 6 0 10 16 10
35 0 20 9 54 20 75 11 22 17 40 12 40 -5 0 -16 -17 -26 -37 l-18 -38 -19 38
c-11 20 -24 37 -29 37 -6 0 1 -22 15 -50z"/>
<path d="M4270 4255 c0 -8 -6 -15 -12 -15 -10 0 -10 -2 -1 -8 6 -4 13 -30 15
-57 3 -43 6 -50 26 -53 12 -2 22 1 22 7 0 6 -7 11 -15 11 -23 0 -21 87 3 93
16 4 16 5 0 6 -10 0 -18 8 -18 16 0 8 -4 15 -10 15 -5 0 -10 -7 -10 -15z"/>
<path d="M4886 4199 c-30 -80 -29 -79 -16 -79 6 0 10 6 10 14 0 32 63 35 84 4
9 -12 18 -20 20 -17 9 9 -47 149 -59 149 -7 0 -24 -32 -39 -71z m64 -20 c0 -5
-11 -9 -25 -9 -28 0 -29 4 -14 50 l12 32 13 -32 c8 -18 14 -36 14 -41z"/>
<path d="M5350 4195 c0 -43 4 -75 10 -75 6 0 10 24 11 53 l1 52 23 -48 c12
-26 25 -51 29 -54 3 -3 18 21 33 53 l28 59 3 -57 c4 -85 22 -71 22 17 0 95
-17 99 -55 13 l-28 -63 -28 63 c-16 34 -34 62 -39 62 -6 0 -10 -32 -10 -75z"/>
<path d="M6783 4251 c-7 -10 -8 -22 -3 -27 5 -5 10 -29 12 -54 3 -38 7 -46 26
-48 27 -4 29 14 2 21 -30 8 -28 74 3 87 16 6 17 9 5 9 -9 1 -21 8 -25 16 -7
12 -10 12 -20 -4z"/>
<path d="M11530 4262 c-41 -2 -79 -7 -85 -12 -5 -4 -49 -10 -97 -13 -47 -3
-94 -10 -105 -15 -18 -10 -81 -24 -119 -27 -12 -1 -34 -14 -50 -28 -16 -15
-33 -27 -38 -27 -42 0 -109 -102 -179 -273 l-16 -37 41 -21 c23 -12 70 -32
104 -45 l63 -23 41 82 c45 91 82 134 150 176 38 24 241 139 261 149 12 6 48
-95 65 -183 10 -55 17 -143 18 -225 1 -129 0 -137 -28 -193 -21 -43 -36 -62
-57 -69 -38 -13 -45 -41 -22 -85 l19 -36 -68 -206 c-37 -113 -79 -244 -93
-291 -15 -47 -38 -105 -52 -129 -28 -47 -259 -341 -299 -379 -28 -27 -26 -48
13 -100 26 -35 70 -62 101 -62 11 0 57 37 104 83 46 45 126 123 179 172 52 50
115 118 139 153 25 35 113 196 195 360 134 266 155 300 193 329 l44 33 186 0
c211 0 334 11 440 40 40 11 74 20 76 20 1 0 6 -44 9 -97 3 -54 15 -159 27
-233 11 -74 20 -140 20 -146 0 -8 17 -8 63 2 34 7 81 13 105 14 35 0 42 3 42
20 0 19 7 20 203 20 172 1 318 6 652 26 33 2 79 3 103 4 l42 0 0 61 0 62 -182
-7 c-101 -4 -372 -9 -603 -12 -231 -3 -424 -8 -430 -11 -5 -3 -4 0 3 8 8 9 45
15 114 17 l101 4 -6 132 c-6 127 -18 200 -39 221 -6 7 -9 7 -7 0 6 -25 -15
-112 -32 -127 -37 -36 -48 -24 -95 107 -21 60 -49 90 -100 105 -53 16 -407 25
-462 12 l-44 -10 7 26 c3 15 17 36 30 47 25 21 36 49 20 52 -18 3 -28 50 -36
168 -5 66 -11 140 -15 164 l-6 43 -46 -6 c-26 -3 -50 -13 -55 -21 -6 -11 -26
-15 -77 -15 -59 0 -72 3 -82 20 -7 11 -18 20 -24 20 -15 0 -26 25 -31 70 -2
19 -11 40 -19 46 -8 6 -14 16 -14 22 0 9 -81 32 -114 32 -8 0 -19 7 -26 16
-21 25 -41 29 -120 26z"/>
<path d="M2716 4224 c-21 -21 -20 -67 2 -87 11 -10 33 -16 60 -14 l42 1 0 57
0 56 -44 1 c-29 2 -50 -3 -60 -14z m73 -8 c7 -8 11 -27 9 -43 -3 -25 -7 -28
-38 -28 -31 0 -35 3 -38 28 -4 32 13 57 38 57 10 0 23 -6 29 -14z"/>
<path d="M2860 4225 c-16 -19 -5 -34 37 -51 28 -12 32 -18 23 -29 -8 -10 -18
-11 -36 -4 -35 13 -39 11 -24 -7 21 -24 74 -15 78 14 3 18 -4 26 -32 37 -20 9
-36 20 -36 25 0 17 29 23 45 10 17 -14 31 -8 20 9 -9 16 -61 13 -75 -4z"/>
<path d="M3257 4222 c-21 -23 -22 -51 -1 -80 17 -24 62 -30 82 -10 20 20 13
29 -10 14 -16 -10 -30 -11 -46 -5 -37 14 -20 34 31 37 51 3 60 17 29 45 -24
22 -65 21 -85 -1z m71 -4 c21 -21 13 -28 -28 -28 -22 0 -40 4 -40 8 0 14 23
32 40 32 9 0 21 -5 28 -12z"/>
<path d="M3397 4222 c-21 -23 -22 -51 -2 -80 13 -17 24 -21 60 -20 l45 2 0 57
0 56 -43 1 c-31 2 -49 -3 -60 -16z m72 -6 c7 -8 11 -27 9 -43 -2 -23 -9 -29
-32 -31 -16 -2 -32 2 -37 10 -30 46 26 105 60 64z"/>
<path d="M3540 4178 c0 -32 4 -58 10 -58 6 0 10 20 10 44 0 34 5 47 23 59 22
15 22 15 -10 15 l-33 -1 0 -59z"/>
<path d="M3860 4198 c0 -60 11 -72 65 -74 l45 -2 0 59 c0 33 -4 59 -10 59 -5
0 -10 -20 -10 -45 0 -32 -5 -47 -18 -54 -31 -17 -52 5 -52 54 0 25 -4 45 -10
45 -5 0 -10 -19 -10 -42z"/>
<path d="M4016 4224 c-37 -37 -7 -104 46 -104 27 0 56 25 44 37 -4 4 -10 3
-14 -3 -12 -18 -40 -23 -58 -10 -26 20 -8 36 42 36 48 0 52 5 28 38 -18 26
-65 30 -88 6z m72 -6 c21 -21 13 -28 -28 -28 -22 0 -40 4 -40 8 0 14 23 32 40
32 9 0 21 -5 28 -12z"/>
<path d="M4150 4225 c-16 -19 -5 -34 38 -52 34 -14 35 -16 18 -29 -13 -9 -24
-10 -37 -4 -26 14 -33 12 -19 -5 23 -27 80 -15 80 17 0 12 -12 24 -35 34 -19
8 -35 19 -35 24 0 17 29 23 45 10 17 -14 31 -8 20 9 -9 16 -61 13 -75 -4z"/>
<path d="M4350 4180 c0 -33 4 -60 10 -60 6 0 10 27 10 60 0 33 -4 60 -10 60
-6 0 -10 -27 -10 -60z"/>
<path d="M4413 4228 c-31 -40 -19 -94 22 -104 59 -15 103 42 70 92 -17 27 -75
34 -92 12z m72 -14 c21 -21 16 -53 -10 -70 -18 -12 -24 -11 -43 2 -26 18 -28
46 -6 68 20 20 38 20 59 0z"/>
<path d="M4540 4178 c0 -69 18 -78 22 -12 3 50 22 72 52 61 12 -5 16 -19 16
-57 0 -27 5 -50 10 -50 15 0 12 96 -4 109 -7 6 -32 10 -55 9 l-41 -1 0 -59z"/>
<path d="M4690 4225 c-16 -19 -5 -34 37 -51 28 -12 32 -18 23 -29 -8 -10 -18
-11 -36 -4 -35 13 -39 11 -24 -7 21 -24 74 -15 78 14 3 18 -4 26 -32 37 -20 9
-36 20 -36 25 0 17 29 23 45 10 17 -14 31 -8 20 9 -9 16 -61 13 -75 -4z"/>
<path d="M5020 4178 c0 -32 4 -58 10 -58 6 0 10 22 10 49 0 41 3 51 20 56 32
10 50 -12 50 -61 0 -24 5 -44 10 -44 13 0 13 76 0 101 -9 15 -20 19 -55 17
l-45 -1 0 -59z"/>
<path d="M5171 4188 c24 -59 24 -61 14 -103 -13 -50 9 -17 43 67 35 85 36 88
24 88 -5 0 -15 -18 -22 -41 -8 -22 -17 -42 -20 -44 -4 -3 -15 16 -25 40 -9 25
-21 45 -26 45 -5 0 1 -24 12 -52z"/>
<path d="M5553 4228 c-31 -40 -19 -94 22 -104 59 -15 103 42 70 92 -17 27 -75
34 -92 12z m72 -14 c21 -21 16 -53 -10 -70 -18 -12 -24 -11 -43 2 -26 18 -28
46 -6 68 20 20 38 20 59 0z"/>
<path d="M5690 4178 c0 -32 4 -58 10 -58 6 0 10 23 10 50 0 37 4 50 14 50 8 0
17 4 21 9 3 5 -8 9 -25 9 -30 -1 -30 -1 -30 -60z"/>
<path d="M5780 4224 c-20 -23 -16 -75 5 -90 25 -19 60 -18 80 2 22 23 12 29
-17 10 -22 -14 -26 -14 -46 0 -31 21 -19 34 34 34 36 0 44 3 44 18 0 10 -5 23
-12 30 -17 17 -73 15 -88 -4z m64 0 c33 -13 17 -34 -24 -34 -38 0 -40 2 -30
20 11 21 27 25 54 14z"/>
<path d="M6110 4224 c-20 -23 -16 -75 5 -90 25 -19 60 -18 80 2 22 23 12 29
-17 10 -22 -14 -26 -14 -46 0 -31 21 -19 34 34 34 36 0 44 3 44 18 0 10 -5 23
-12 30 -17 17 -73 15 -88 -4z m64 0 c33 -13 17 -34 -24 -34 -38 0 -40 2 -30
20 11 21 27 25 54 14z"/>
<path d="M6240 4148 c0 -52 4 -88 10 -88 6 0 10 19 10 42 0 33 3 39 12 30 17
-17 54 -15 72 4 19 19 21 77 3 93 -8 6 -35 10 -60 9 l-47 -2 0 -88z m95 58
c28 -43 -12 -89 -53 -60 -26 18 -29 59 -4 73 27 16 40 13 57 -13z"/>
<path d="M6402 4228 c-17 -17 -15 -74 4 -92 18 -19 55 -21 72 -4 9 9 12 9 12
0 0 -7 5 -12 10 -12 6 0 10 26 10 58 l0 58 -48 2 c-27 1 -53 -3 -60 -10z m69
-8 c38 -21 18 -80 -28 -80 -33 0 -49 35 -28 66 17 27 27 29 56 14z"/>
<path d="M6550 4178 c0 -32 4 -58 10 -58 6 0 10 23 10 50 0 37 4 50 14 50 8 0
17 4 21 9 3 5 -8 9 -25 9 -30 -1 -30 -1 -30 -60z"/>
<path d="M6637 4222 c-21 -23 -22 -51 -2 -80 13 -17 24 -21 60 -20 l45 2 0 57
0 56 -43 1 c-31 2 -49 -3 -60 -16z m72 -6 c7 -8 11 -27 9 -43 -2 -23 -9 -29
-32 -31 -16 -2 -32 2 -37 10 -30 46 26 105 60 64z"/>
<path d="M6872 4228 c-17 -17 -15 -74 4 -92 19 -20 54 -20 80 -2 26 20 11 32
-17 12 -25 -17 -59 -6 -59 19 0 11 12 15 45 15 37 0 45 3 45 18 0 27 -20 42
-55 42 -17 0 -36 -5 -43 -12z m62 -4 c30 -12 18 -34 -19 -34 -24 0 -35 5 -35
14 0 21 27 31 54 20z"/>
<path d="M7050 4236 c0 -2 10 -29 21 -60 17 -45 19 -61 11 -85 -17 -47 3 -37
23 12 48 118 54 137 46 137 -4 0 -16 -20 -25 -45 -10 -25 -21 -43 -25 -41 -4
3 -13 23 -21 45 -7 23 -17 41 -22 41 -4 0 -8 -2 -8 -4z"/>
<path d="M7180 4130 c0 -5 5 -10 10 -10 6 0 10 5 10 10 0 6 -4 10 -10 10 -5 0
-10 -4 -10 -10z"/>
<path d="M2570 3735 c0 -16 6 -25 15 -25 9 0 15 9 15 25 0 16 -6 25 -15 25 -9
0 -15 -9 -15 -25z"/>
<path d="M2610 3735 c0 -16 6 -25 15 -25 9 0 15 9 15 25 0 16 -6 25 -15 25 -9
0 -15 -9 -15 -25z"/>
<path d="M3585 3751 c-8 -15 3 -31 21 -31 9 0 14 7 12 17 -4 20 -24 28 -33 14z"/>
<path d="M4175 3751 c-8 -15 3 -31 21 -31 9 0 14 7 12 17 -4 20 -24 28 -33 14z"/>
<path d="M4540 3735 c0 -16 6 -25 15 -25 9 0 15 9 15 25 0 16 -6 25 -15 25 -9
0 -15 -9 -15 -25z"/>
<path d="M4582 3738 c5 -32 28 -35 28 -4 0 17 -5 26 -16 26 -10 0 -14 -7 -12
-22z"/>
<path d="M5600 3740 c0 -5 5 -10 10 -10 6 0 10 5 10 10 0 6 -4 10 -10 10 -5 0
-10 -4 -10 -10z"/>
<path d="M6720 3740 c0 -5 5 -10 10 -10 6 0 10 5 10 10 0 6 -4 10 -10 10 -5 0
-10 -4 -10 -10z"/>
<path d="M7220 3740 c0 -5 5 -10 10 -10 6 0 10 5 10 10 0 6 -4 10 -10 10 -5 0
-10 -4 -10 -10z"/>
<path d="M7287 3743 c-4 -3 -7 -14 -7 -24 0 -9 -6 -20 -12 -22 -10 -4 -10 -6
0 -6 8 -1 12 -19 12 -56 0 -30 5 -55 10 -55 6 0 10 25 10 55 0 37 4 55 13 55
8 0 7 4 -3 10 -12 8 -13 13 -2 30 10 16 10 20 -1 20 -8 0 -17 -3 -20 -7z"/>
<path d="M2667 3733 c-4 -3 -7 -39 -7 -80 l0 -73 50 0 c38 0 50 4 50 15 0 10
-10 15 -30 15 -23 0 -30 4 -30 20 0 15 7 20 25 20 31 0 33 17 3 22 -13 2 -24
11 -26 21 -3 13 3 17 27 17 21 0 31 5 31 15 0 11 -11 15 -43 15 -24 0 -47 -3
-50 -7z"/>
<path d="M2870 3720 c0 -17 -5 -19 -24 -14 -50 12 -84 -56 -51 -103 12 -18 25
-22 65 -21 l50 0 0 79 c0 72 -2 79 -20 79 -13 0 -20 -7 -20 -20z m-2 -77 c-2
-20 -9 -28 -23 -28 -14 0 -21 8 -23 28 -3 23 0 27 23 27 23 0 26 -4 23 -27z"/>
<path d="M6190 3716 c0 -23 -3 -24 -35 -19 -21 3 -41 1 -50 -7 -20 -16 -19
-74 1 -94 18 -19 55 -21 72 -4 9 9 12 9 12 0 0 -7 5 -12 10 -12 6 0 10 33 10
80 0 47 -4 80 -10 80 -5 0 -10 -11 -10 -24z m-19 -36 c38 -21 18 -80 -28 -80
-33 0 -49 35 -28 66 17 27 27 29 56 14z"/>
<path d="M6606 3727 c-29 -21 -17 -58 24 -72 24 -8 36 -19 38 -33 3 -18 -2
-22 -26 -22 -17 0 -32 6 -35 13 -2 6 -8 9 -12 5 -14 -13 16 -38 45 -38 61 0
66 55 8 83 -21 10 -38 25 -38 33 0 21 29 29 52 15 26 -16 34 -8 13 13 -20 19
-45 21 -69 3z"/>
<path d="M7160 3660 c0 -47 4 -80 10 -80 6 0 10 33 10 80 0 47 -4 80 -10 80
-6 0 -10 -33 -10 -80z"/>
<path d="M4700 3655 c0 -43 4 -75 10 -75 6 0 10 16 10 35 0 34 1 35 40 35 39
0 40 -1 40 -35 0 -19 5 -35 10 -35 6 0 10 32 10 75 0 43 -4 75 -10 75 -5 0
-10 -13 -10 -30 0 -28 -2 -30 -40 -30 -38 0 -40 2 -40 30 0 17 -4 30 -10 30
-6 0 -10 -32 -10 -75z"/>
<path d="M5190 3654 l0 -77 46 6 c53 6 71 20 80 62 9 49 -26 85 -82 85 l-44 0
0 -76z m94 44 c32 -45 12 -88 -46 -102 l-28 -6 0 65 0 65 29 0 c20 0 35 -8 45
-22z"/>
<path d="M6310 3716 c0 -8 -6 -17 -12 -19 -10 -4 -10 -6 0 -6 7 -1 12 -17 12
-44 0 -24 5 -48 12 -55 15 -15 38 -16 38 -2 0 6 -7 10 -15 10 -23 0 -21 87 3
93 16 4 16 5 0 6 -10 0 -18 8 -18 16 0 8 -4 15 -10 15 -5 0 -10 -6 -10 -14z"/>
<path d="M7530 3725 c0 -3 9 -23 20 -45 11 -22 20 -53 20 -70 0 -16 5 -30 10
-30 6 0 10 14 10 30 0 17 9 49 21 71 11 23 18 43 15 46 -2 3 -13 -12 -24 -34
l-20 -38 -18 38 c-15 32 -34 49 -34 32z"/>
<path d="M13740 3719 c-47 -4 -163 -10 -258 -15 -95 -4 -168 -10 -162 -14 8
-5 4 -9 -9 -13 -18 -4 -21 -13 -21 -56 l0 -51 173 -2 c227 -2 595 2 727 7 58
2 158 4 223 4 l117 1 0 65 c0 59 -2 65 -22 69 -40 8 -680 12 -768 5z"/>
<path d="M3155 3685 c-30 -29 -32 -58 -5 -85 22 -22 51 -26 81 -10 30 16 23
31 -13 28 -18 -2 -35 2 -38 7 -3 6 13 11 38 13 23 2 42 8 42 13 0 16 -48 59
-65 59 -9 0 -27 -11 -40 -25z m60 -14 c3 -5 1 -13 -5 -16 -15 -9 -43 3 -35 15
8 13 32 13 40 1z"/>
<path d="M3458 3703 c-9 -2 -22 -18 -29 -35 -10 -26 -10 -35 2 -57 12 -21 22
-26 52 -25 38 1 42 -2 28 -24 -6 -9 -19 -11 -45 -7 -20 4 -36 5 -36 2 0 -15
35 -37 59 -37 46 0 61 27 61 108 0 68 -1 72 -22 71 -13 -1 -30 1 -38 3 -8 3
-22 4 -32 1z m56 -49 c7 -19 -10 -44 -31 -44 -17 0 -27 24 -19 45 7 20 42 19
50 -1z"/>
<path d="M3815 3685 c-30 -29 -32 -58 -5 -85 22 -22 51 -26 81 -10 30 16 23
31 -13 28 -18 -2 -35 2 -38 7 -3 6 13 11 38 13 23 2 42 8 42 13 0 16 -48 59
-65 59 -9 0 -27 -11 -40 -25z m60 -14 c3 -5 1 -13 -5 -16 -15 -9 -43 3 -35 15
8 13 32 13 40 1z"/>
<path d="M3956 3689 c-29 -23 -33 -54 -10 -87 18 -26 65 -30 88 -6 23 22 20
25 -16 22 -18 -2 -35 2 -38 7 -3 6 12 11 33 13 28 3 37 7 37 22 0 19 -35 50
-56 50 -6 0 -23 -9 -38 -21z m53 -18 c9 -6 10 -10 2 -16 -16 -9 -44 2 -36 15
8 12 16 12 34 1z"/>
<path d="M4412 3695 c-15 -11 -22 -26 -22 -50 0 -45 25 -69 62 -61 24 5 29 3
26 -12 -3 -14 -13 -16 -48 -14 -44 3 -44 3 -25 -18 21 -23 63 -26 90 -6 16 11
20 30 23 90 l4 76 -28 -1 c-16 -1 -36 1 -44 5 -8 3 -25 -1 -38 -9z m66 -53 c4
-28 -24 -40 -45 -19 -21 21 -9 49 19 45 15 -2 24 -11 26 -26z"/>
<path d="M2940 3651 c0 -27 6 -53 13 -59 6 -6 33 -10 60 -10 l47 1 0 59 c0 45
-3 58 -15 58 -10 0 -15 -10 -15 -29 0 -42 -10 -61 -31 -61 -16 0 -19 8 -19 45
0 38 -3 45 -20 45 -17 0 -20 -7 -20 -49z"/>
<path d="M3280 3640 c0 -53 2 -60 20 -60 17 0 20 7 20 45 0 38 3 45 20 45 17
0 20 -7 20 -45 0 -38 3 -45 20 -45 17 0 20 7 20 48 0 26 -5 53 -12 60 -7 7
-34 12 -60 12 l-48 0 0 -60z"/>
<path d="M3580 3640 c0 -53 2 -60 20 -60 18 0 20 7 20 60 0 53 -2 60 -20 60
-18 0 -20 -7 -20 -60z"/>
<path d="M3650 3640 c0 -53 2 -60 20 -60 17 0 20 7 20 45 0 38 3 45 20 45 17
0 20 -7 20 -45 0 -38 3 -45 20 -45 17 0 20 7 20 48 0 26 -5 53 -12 60 -7 7
-34 12 -60 12 l-48 0 0 -60z"/>
<path d="M4080 3640 c0 -53 2 -60 20 -60 17 0 20 7 20 40 0 27 5 43 15 46 28
11 16 31 -20 32 l-35 1 0 -59z"/>
<path d="M4170 3640 c0 -53 2 -60 20 -60 18 0 20 7 20 60 0 53 -2 60 -20 60
-18 0 -20 -7 -20 -60z"/>
<path d="M4240 3640 c0 -53 2 -60 20 -60 17 0 20 7 20 46 0 41 2 45 23 42 18
-2 23 -10 25 -45 2 -29 8 -43 18 -43 10 0 14 12 14 44 0 70 -5 76 -66 76 l-54
0 0 -60z"/>
<path d="M4866 3684 c-21 -21 -20 -67 2 -87 11 -10 33 -16 60 -14 l42 1 0 57
0 56 -44 1 c-29 2 -50 -3 -60 -14z m73 -8 c7 -8 11 -27 9 -43 -3 -25 -7 -28
-38 -28 -31 0 -35 3 -38 28 -4 32 13 57 38 57 10 0 23 -6 29 -14z"/>
<path d="M5010 3685 c-16 -19 -5 -34 37 -51 28 -12 32 -18 23 -29 -8 -10 -18
-11 -36 -4 -35 13 -39 11 -24 -7 21 -24 74 -15 78 14 3 18 -4 26 -32 37 -20 9
-36 20 -36 25 0 17 29 23 45 10 17 -14 31 -8 20 9 -9 16 -61 13 -75 -4z"/>
<path d="M5352 3688 c-17 -17 -15 -74 4 -92 19 -20 54 -20 80 -2 26 20 11 32
-17 12 -25 -17 -59 -6 -59 19 0 11 12 15 45 15 37 0 45 3 45 18 0 27 -20 42
-55 42 -17 0 -36 -5 -43 -12z m62 -4 c30 -12 18 -34 -19 -34 -24 0 -35 5 -35
14 0 21 27 31 54 20z"/>
<path d="M5484 3685 c-10 -25 3 -43 35 -50 32 -7 42 -29 18 -38 -8 -3 -20 -1
-28 4 -22 14 -33 11 -19 -6 24 -28 80 -13 80 23 0 7 -16 20 -35 28 -19 8 -35
19 -35 24 0 16 30 24 43 11 17 -17 31 -13 17 4 -7 8 -26 15 -42 15 -16 0 -31
-6 -34 -15z"/>
<path d="M5600 3640 c0 -33 4 -60 10 -60 6 0 10 27 10 60 0 33 -4 60 -10 60
-6 0 -10 -27 -10 -60z"/>
<path d="M5666 3684 c-41 -41 -3 -112 54 -100 28 5 31 3 28 -17 -4 -26 -41
-35 -64 -16 -8 6 -18 9 -22 5 -10 -11 28 -36 53 -36 40 0 55 30 55 107 l0 70
-44 1 c-29 2 -50 -3 -60 -14z m73 -8 c7 -8 11 -27 9 -43 -3 -25 -7 -28 -38
-28 -31 0 -35 3 -38 28 -4 32 13 57 38 57 10 0 23 -6 29 -14z"/>
<path d="M5810 3638 c0 -32 4 -58 10 -58 6 0 10 22 10 49 0 41 3 51 20 56 32
10 50 -12 50 -61 0 -24 5 -44 10 -44 13 0 13 76 0 101 -9 15 -20 19 -55 17
l-45 -1 0 -59z"/>
<path d="M5962 3688 c-17 -17 -15 -74 4 -92 19 -20 54 -20 80 -2 26 20 11 32
-17 12 -25 -17 -59 -6 -59 19 0 11 12 15 45 15 37 0 45 3 45 18 0 27 -20 42
-55 42 -17 0 -36 -5 -43 -12z m62 -4 c30 -12 18 -34 -19 -34 -24 0 -35 5 -35
14 0 21 27 31 54 20z"/>
<path d="M6397 3682 c-36 -40 -9 -102 45 -102 49 0 78 69 42 104 -21 22 -67
20 -87 -2z m72 -6 c7 -8 11 -27 9 -43 -3 -25 -7 -28 -38 -28 -31 0 -35 3 -38
28 -4 32 13 57 38 57 10 0 23 -6 29 -14z"/>
<path d="M6720 3640 c0 -33 4 -60 10 -60 6 0 10 27 10 60 0 33 -4 60 -10 60
-6 0 -10 -27 -10 -60z"/>
<path d="M6780 3638 c0 -32 4 -58 10 -58 6 0 10 22 10 49 0 41 3 51 20 56 32
10 50 -12 50 -61 0 -62 18 -55 22 8 2 42 7 54 22 56 27 6 39 -12 47 -66 l6
-47 2 47 c0 25 -2 53 -5 62 -7 18 -59 22 -69 6 -5 -8 -11 -8 -19 0 -7 5 -32 9
-55 8 l-41 -1 0 -59z"/>
<path d="M7010 3608 c0 -52 4 -88 10 -88 6 0 10 19 10 42 0 33 3 39 12 30 17
-17 54 -15 72 4 19 19 21 77 3 93 -8 6 -35 10 -60 9 l-47 -2 0 -88z m95 58
c28 -43 -12 -89 -53 -60 -26 18 -29 59 -4 73 27 16 40 13 57 -13z"/>
<path d="M7220 3640 c0 -33 4 -60 10 -60 6 0 10 27 10 60 0 33 -4 60 -10 60
-6 0 -10 -27 -10 -60z"/>
<path d="M7340 3691 c0 -4 10 -32 21 -60 18 -43 20 -56 10 -78 -10 -22 -8 -44
3 -32 12 12 73 179 66 179 -5 0 -16 -20 -25 -45 -20 -51 -30 -50 -46 5 -11 35
-29 55 -29 31z"/>
<path d="M7677 3682 c-36 -40 -9 -102 45 -102 49 0 78 69 42 104 -21 22 -67
20 -87 -2z m72 -6 c7 -8 11 -27 9 -43 -3 -25 -7 -28 -38 -28 -31 0 -35 3 -38
28 -4 32 13 57 38 57 10 0 23 -6 29 -14z"/>
<path d="M7810 3651 c0 -58 12 -71 68 -68 l42 1 0 58 c0 32 -4 58 -10 58 -5 0
-10 -17 -10 -37 0 -49 -12 -66 -41 -61 -21 3 -24 9 -27 51 -4 62 -22 61 -22
-2z"/>
<path d="M7950 3638 c0 -32 4 -58 10 -58 6 0 10 20 10 44 0 34 5 47 23 59 22
15 22 15 -10 15 l-33 -1 0 -59z"/>
<path d="M10814 3684 c3 -7 -11 -60 -31 -116 -55 -154 -46 -255 19 -229 13 6
20 10 16 10 -9 1 20 102 33 116 12 12 12 38 -1 30 -6 -3 -7 1 -3 10 5 13 7 14
14 3 8 -11 11 -11 18 1 14 21 30 4 37 -40 5 -27 11 -39 23 -38 10 0 11 2 4 6
-7 2 -13 21 -13 42 0 45 -20 77 -44 68 -13 -5 -15 -2 -12 16 8 43 18 57 42 57
35 0 30 26 -8 41 -101 38 -100 38 -94 23z"/>
<path d="M2990 3410 c0 -5 5 -10 10 -10 6 0 10 5 10 10 0 6 -4 10 -10 10 -5 0
-10 -4 -10 -10z"/>
<path d="M3550 3410 c0 -5 5 -10 10 -10 6 0 10 5 10 10 0 6 -4 10 -10 10 -5 0
-10 -4 -10 -10z"/>
<path d="M4060 3410 c0 -5 5 -10 10 -10 6 0 10 5 10 10 0 6 -4 10 -10 10 -5 0
-10 -4 -10 -10z"/>
<path d="M4127 3413 c-4 -3 -7 -14 -7 -24 0 -9 -6 -20 -12 -22 -10 -4 -10 -6
0 -6 8 -1 12 -19 12 -56 0 -30 5 -55 10 -55 6 0 10 25 10 55 0 37 4 55 13 55
8 0 7 4 -3 10 -12 8 -13 13 -2 30 10 16 10 20 -1 20 -8 0 -17 -3 -20 -7z"/>
<path d="M4930 3410 c0 -5 5 -10 10 -10 6 0 10 5 10 10 0 6 -4 10 -10 10 -5 0
-10 -4 -10 -10z"/>
<path d="M6160 3410 c0 -5 5 -10 10 -10 6 0 10 5 10 10 0 6 -4 10 -10 10 -5 0
-10 -4 -10 -10z"/>
<path d="M2580 3330 l0 -80 43 2 c36 1 38 2 10 5 -29 4 -33 8 -33 34 0 24 4
29 25 29 14 0 25 5 25 10 0 6 -11 10 -25 10 -20 0 -25 5 -25 25 0 21 5 25 30
25 17 0 30 5 30 10 0 6 -18 10 -40 10 l-40 0 0 -80z"/>
<path d="M5350 3330 l0 -80 43 2 c36 1 38 2 10 5 -29 4 -33 8 -33 34 0 24 4
29 25 29 14 0 25 5 25 10 0 6 -11 10 -25 10 -20 0 -25 5 -25 25 0 21 5 25 30
25 17 0 30 5 30 10 0 6 -18 10 -40 10 l-40 0 0 -80z"/>
<path d="M6020 3330 c0 -47 4 -80 10 -80 6 0 10 22 10 49 0 41 3 51 20 56 32
10 50 -12 50 -61 0 -24 5 -44 10 -44 15 0 12 83 -3 104 -10 14 -23 17 -45 14
-28 -4 -32 -2 -32 19 0 13 -4 23 -10 23 -6 0 -10 -33 -10 -80z"/>
<path d="M7050 3330 c0 -94 18 -108 22 -18 l3 63 40 -63 c22 -34 43 -62 48
-62 4 0 6 37 5 83 -2 76 -2 77 -5 20 -2 -35 -7 -63 -11 -63 -4 1 -24 28 -44
60 -21 33 -42 60 -48 60 -6 0 -10 -32 -10 -80z"/>
<path d="M7590 3387 c0 -21 -4 -24 -42 -23 -36 1 -44 -3 -55 -26 -27 -54 29
-110 79 -79 11 7 18 7 18 1 0 -5 5 -10 10 -10 6 0 10 33 10 80 0 47 -4 80 -10
80 -5 0 -10 -11 -10 -23z m-15 -43 c21 -21 16 -53 -10 -70 -18 -12 -24 -11
-43 2 -26 18 -28 46 -6 68 20 20 38 20 59 0z"/>
<path d="M8090 3387 c0 -21 -4 -23 -30 -19 -58 8 -89 -47 -55 -96 13 -17 24
-21 60 -20 l45 2 0 78 c0 45 -4 78 -10 78 -5 0 -10 -10 -10 -23z m-11 -41 c7
-8 11 -27 9 -43 -2 -23 -9 -29 -32 -31 -16 -2 -32 2 -37 10 -30 46 26 105 60
64z"/>
<path d="M3960 3325 l0 -75 43 1 c38 1 39 2 12 8 -29 6 -30 8 -33 74 -4 91
-22 85 -22 -8z"/>
<path d="M4390 3325 l0 -75 38 0 c26 0 45 7 57 20 16 18 16 22 3 42 -11 17
-12 28 -5 39 19 31 1 49 -48 49 l-45 0 0 -75z m75 40 c0 -14 -8 -21 -27 -23
-24 -3 -28 0 -28 23 0 23 4 26 28 23 19 -2 27 -9 27 -23z m13 -67 c2 -12 -6
-21 -23 -28 -33 -13 -45 -6 -45 26 0 22 4 25 32 22 22 -2 34 -9 36 -20z"/>
<path d="M4710 3325 l0 -75 39 0 c56 0 89 38 60 67 -8 8 -8 17 -1 29 18 33 -3
54 -53 54 l-45 0 0 -75z m85 40 c0 -15 -8 -21 -32 -23 -30 -3 -33 -1 -33 23 0
24 3 26 33 23 24 -2 32 -8 32 -23z m3 -67 c2 -12 -6 -21 -23 -28 -33 -13 -45
-6 -45 26 0 22 4 25 32 22 22 -2 34 -9 36 -20z"/>
<path d="M5939 3383 c-3 -50 4 -109 13 -120 12 -15 38 -17 38 -3 0 6 -7 10
-15 10 -23 0 -21 87 3 93 16 4 16 5 0 6 -10 0 -18 8 -18 16 0 21 -20 19 -21
-2z"/>
<path d="M6570 3395 c0 -3 9 -23 20 -45 11 -22 20 -53 20 -70 0 -16 5 -30 10
-30 6 0 10 14 10 30 0 17 9 49 21 71 11 23 18 43 15 46 -2 3 -13 -12 -24 -34
l-20 -38 -18 38 c-15 32 -34 49 -34 32z"/>
<path d="M7700 3347 c0 -64 20 -97 59 -97 43 0 61 28 61 93 0 77 -18 73 -22
-5 -3 -61 -4 -63 -32 -66 -37 -5 -46 10 -46 76 0 28 -4 52 -10 52 -5 0 -10
-24 -10 -53z"/>
<path d="M2690 3308 c0 -32 4 -58 10 -58 6 0 10 20 10 44 0 49 18 71 50 61 17
-5 20 -15 20 -56 0 -27 5 -49 10 -49 15 0 12 96 -4 109 -7 6 -32 10 -55 9
l-41 -1 0 -59z"/>
<path d="M2846 3354 c-41 -41 -3 -112 54 -100 28 5 31 3 28 -17 -4 -26 -41
-35 -64 -16 -8 6 -18 9 -22 5 -10 -11 28 -36 53 -36 40 0 55 30 55 107 l0 70
-44 1 c-29 2 -50 -3 -60 -14z m73 -8 c7 -8 11 -27 9 -43 -3 -25 -7 -28 -38
-28 -31 0 -35 3 -38 28 -4 32 13 57 38 57 10 0 23 -6 29 -14z"/>
<path d="M2990 3310 c0 -33 4 -60 10 -60 6 0 10 27 10 60 0 33 -4 60 -10 60
-6 0 -10 -27 -10 -60z"/>
<path d="M3040 3308 c0 -69 18 -78 22 -12 3 50 22 72 52 61 12 -5 16 -19 16
-57 0 -27 5 -50 10 -50 15 0 12 96 -4 109 -7 6 -32 10 -55 9 l-41 -1 0 -59z"/>
<path d="M3196 3354 c-37 -37 -7 -104 46 -104 27 0 56 25 44 37 -4 4 -10 3
-14 -3 -12 -18 -40 -23 -58 -10 -26 20 -8 36 42 36 48 0 52 5 28 38 -18 26
-65 30 -88 6z m72 -6 c21 -21 13 -28 -28 -28 -22 0 -40 4 -40 8 0 14 23 32 40
32 9 0 21 -5 28 -12z"/>
<path d="M3336 3354 c-37 -37 -7 -104 46 -104 27 0 56 25 44 37 -4 4 -10 3
-14 -3 -12 -18 -40 -23 -58 -10 -26 20 -8 36 42 36 48 0 52 5 28 38 -18 26
-65 30 -88 6z m72 -6 c21 -21 13 -28 -28 -28 -22 0 -40 4 -40 8 0 14 23 32 40
32 9 0 21 -5 28 -12z"/>
<path d="M3470 3308 c0 -32 4 -58 10 -58 6 0 10 23 10 50 0 37 4 50 14 50 8 0
17 4 21 9 3 5 -8 9 -25 9 -30 -1 -30 -1 -30 -60z"/>
<path d="M3550 3310 c0 -33 4 -60 10 -60 6 0 10 27 10 60 0 33 -4 60 -10 60
-6 0 -10 -27 -10 -60z"/>
<path d="M3610 3308 c0 -32 4 -58 10 -58 6 0 10 23 10 50 0 38 4 52 16 57 30
11 49 -11 52 -61 2 -25 7 -46 13 -46 12 0 12 62 -1 94 -8 23 -15 26 -55 24
l-45 -1 0 -59z"/>
<path d="M3757 3352 c-21 -23 -22 -51 -1 -81 14 -19 23 -22 51 -18 31 5 34 4
31 -16 -4 -26 -41 -35 -64 -16 -8 6 -18 9 -22 5 -10 -11 28 -36 54 -36 41 0
54 25 54 104 l0 73 -43 1 c-31 2 -49 -3 -60 -16z m72 -6 c7 -8 11 -27 9 -43
-2 -23 -9 -29 -32 -31 -16 -2 -32 2 -37 10 -30 46 26 105 60 64z"/>
<path d="M4060 3310 c0 -33 4 -60 10 -60 6 0 10 27 10 60 0 33 -4 60 -10 60
-6 0 -10 -27 -10 -60z"/>
<path d="M4197 3352 c-21 -23 -22 -51 -1 -80 17 -24 62 -30 82 -10 20 20 13
29 -10 14 -16 -10 -30 -11 -46 -5 -37 14 -20 34 31 37 51 3 60 17 29 45 -24
22 -65 21 -85 -1z m71 -4 c21 -21 13 -28 -28 -28 -22 0 -40 4 -40 8 0 14 23
32 40 32 9 0 21 -5 28 -12z"/>
<path d="M4520 3361 c0 -4 10 -32 21 -60 18 -43 20 -56 10 -78 -10 -22 -8 -44
3 -32 12 12 73 179 66 179 -5 0 -16 -20 -25 -45 -20 -51 -30 -50 -46 5 -11 35
-29 55 -29 31z"/>
<path d="M4850 3308 c0 -32 4 -58 10 -58 6 0 10 20 10 44 0 34 5 47 23 59 22
15 22 15 -10 15 l-33 -1 0 -59z"/>
<path d="M4930 3310 c0 -33 4 -60 10 -60 6 0 10 27 10 60 0 33 -4 60 -10 60
-6 0 -10 -27 -10 -60z"/>
<path d="M4990 3308 c0 -32 4 -58 10 -58 6 0 10 22 10 49 0 41 3 51 20 56 32
10 50 -12 50 -61 0 -24 5 -44 10 -44 13 0 13 76 0 101 -9 15 -20 19 -55 17
l-45 -1 0 -59z"/>
<path d="M5142 3358 c-17 -17 -15 -74 4 -92 19 -19 55 -21 73 -3 10 10 12 6 9
-18 -2 -25 -8 -31 -32 -33 -16 -2 -33 1 -39 7 -20 20 -30 11 -12 -9 10 -11 31
-20 46 -20 42 0 59 32 59 110 l0 66 -48 2 c-27 1 -53 -3 -60 -10z m69 -8 c38
-21 18 -80 -28 -80 -33 0 -49 35 -28 66 17 27 27 29 56 14z"/>
<path d="M5452 3362 c2 -4 12 -31 22 -60 11 -29 25 -52 32 -52 6 0 21 25 33
56 24 63 24 64 13 64 -5 0 -14 -18 -21 -40 -16 -55 -27 -57 -47 -5 -9 25 -21
45 -26 45 -5 0 -8 -4 -6 -8z"/>
<path d="M5596 3354 c-37 -37 -7 -104 46 -104 27 0 56 25 44 37 -4 4 -10 3
-14 -3 -12 -18 -40 -23 -58 -10 -26 20 -8 36 42 36 48 0 52 5 28 38 -18 26
-65 30 -88 6z m72 -6 c21 -21 13 -28 -28 -28 -22 0 -40 4 -40 8 0 14 23 32 40
32 9 0 21 -5 28 -12z"/>
<path d="M5730 3308 c0 -32 4 -58 10 -58 6 0 10 23 10 50 0 37 4 50 14 50 8 0
17 4 21 9 3 5 -8 9 -25 9 -30 -1 -30 -1 -30 -60z"/>
<path d="M5821 3318 c24 -59 24 -61 14 -103 -13 -50 9 -17 43 67 35 85 36 88
24 88 -5 0 -15 -18 -22 -41 -8 -22 -17 -42 -20 -44 -4 -3 -15 16 -25 40 -9 25
-21 45 -26 45 -5 0 1 -24 12 -52z"/>
<path d="M6160 3310 c0 -33 4 -60 10 -60 6 0 10 27 10 60 0 33 -4 60 -10 60
-6 0 -10 -27 -10 -60z"/>
<path d="M6220 3308 c0 -32 4 -58 10 -58 6 0 10 22 10 49 0 41 3 51 20 56 32
10 50 -12 50 -61 0 -24 5 -44 10 -44 13 0 13 76 0 101 -9 15 -20 19 -55 17
l-45 -1 0 -59z"/>
<path d="M6372 3358 c-17 -17 -15 -74 4 -92 19 -19 55 -21 73 -3 10 10 12 6 9
-18 -2 -25 -8 -31 -32 -33 -16 -2 -33 1 -39 7 -20 20 -30 11 -12 -9 10 -11 31
-20 46 -20 42 0 59 32 59 110 l0 66 -48 2 c-27 1 -53 -3 -60 -10z m69 -8 c38
-21 18 -80 -28 -80 -33 0 -49 35 -28 66 17 27 27 29 56 14z"/>
<path d="M6717 3352 c-36 -40 -9 -102 45 -102 49 0 78 69 42 104 -21 22 -67
20 -87 -2z m72 -6 c7 -8 11 -27 9 -43 -3 -25 -7 -28 -38 -28 -31 0 -35 3 -38
28 -4 32 13 57 38 57 10 0 23 -6 29 -14z"/>
<path d="M6850 3328 c0 -60 11 -72 65 -74 l45 -2 0 59 c0 33 -4 59 -10 59 -5
0 -10 -20 -10 -45 0 -32 -5 -47 -18 -54 -31 -17 -52 5 -52 54 0 25 -4 45 -10
45 -5 0 -10 -19 -10 -42z"/>
<path d="M7222 3358 c-17 -17 -15 -74 4 -92 19 -20 54 -20 80 -2 26 20 11 32
-17 12 -25 -17 -59 -6 -59 19 0 11 12 15 45 15 37 0 45 3 45 18 0 27 -20 42
-55 42 -17 0 -36 -5 -43 -12z m62 -4 c30 -12 18 -34 -19 -34 -24 0 -35 5 -35
14 0 21 27 31 54 20z"/>
<path d="M7360 3354 c-20 -23 -16 -75 5 -90 25 -19 60 -18 80 2 22 23 12 29
-17 10 -22 -14 -26 -14 -46 0 -31 21 -19 34 34 34 36 0 44 3 44 18 0 10 -5 23
-12 30 -17 17 -73 15 -88 -4z m64 0 c33 -13 17 -34 -24 -34 -38 0 -40 2 -30
20 11 21 27 25 54 14z"/>
<path d="M7860 3308 c0 -32 4 -58 10 -58 6 0 10 23 10 50 0 38 4 52 16 57 30
11 49 -11 52 -61 2 -25 7 -46 13 -46 12 0 12 62 -1 94 -8 23 -15 26 -55 24
l-45 -1 0 -59z"/>
<path d="M8160 3354 c-20 -23 -16 -75 5 -90 25 -19 60 -18 80 2 22 23 12 29
-17 10 -22 -14 -26 -14 -46 0 -31 21 -19 34 34 34 36 0 44 3 44 18 0 10 -5 23
-12 30 -17 17 -73 15 -88 -4z m64 0 c33 -13 17 -34 -24 -34 -38 0 -40 2 -30
20 11 21 27 25 54 14z"/>
<path d="M8290 3308 c0 -32 4 -58 10 -58 6 0 10 20 10 44 0 34 5 47 23 59 22
15 22 15 -10 15 l-33 -1 0 -59z"/>
<path d="M8447 3352 c-36 -40 -9 -102 45 -102 49 0 78 69 42 104 -21 22 -67
20 -87 -2z m72 -6 c7 -8 11 -27 9 -43 -3 -25 -7 -28 -38 -28 -31 0 -35 3 -38
28 -4 32 13 57 38 57 10 0 23 -6 29 -14z"/>
<path d="M8580 3308 c0 -32 4 -58 10 -58 6 0 10 22 10 49 0 41 3 51 20 56 32
10 50 -12 50 -61 0 -24 5 -44 10 -44 13 0 13 76 0 101 -9 15 -20 19 -55 17
l-45 -1 0 -59z"/>
<path d="M8732 3358 c-17 -17 -15 -74 4 -92 19 -20 54 -20 80 -2 26 20 11 32
-17 12 -25 -17 -59 -6 -59 19 0 11 12 15 45 15 37 0 45 3 45 18 0 27 -20 42
-55 42 -17 0 -36 -5 -43 -12z m62 -4 c30 -12 18 -34 -19 -34 -24 0 -35 5 -35
14 0 21 27 31 54 20z"/>
<path d="M3007 3050 c-9 -17 -11 -32 -6 -36 5 -3 10 -29 11 -57 l2 -52 3 50
c2 29 10 55 19 61 13 10 12 12 -2 18 -15 6 -15 8 1 26 16 17 16 20 2 20 -8 0
-22 -13 -30 -30z"/>
<path d="M4060 3070 c0 -5 5 -10 10 -10 6 0 10 5 10 10 0 6 -4 10 -10 10 -5 0
-10 -4 -10 -10z"/>
<path d="M3290 2990 c0 -47 4 -80 10 -80 6 0 10 33 10 80 0 47 -4 80 -10 80
-6 0 -10 -33 -10 -80z"/>
<path d="M4200 2990 c0 -47 4 -80 10 -80 6 0 10 22 10 49 0 41 3 51 20 56 32
10 50 -12 50 -61 0 -24 5 -44 10 -44 15 0 12 83 -3 104 -10 14 -23 17 -45 14
-28 -4 -32 -2 -32 19 0 13 -4 23 -10 23 -6 0 -10 -33 -10 -80z"/>
<path d="M5530 2990 c0 -47 4 -80 10 -80 6 0 10 20 10 44 0 49 18 71 50 61 17
-5 20 -15 20 -56 0 -27 5 -49 10 -49 6 0 10 22 10 49 0 57 -16 75 -60 69 -26
-4 -30 -1 -30 19 0 13 -4 23 -10 23 -6 0 -10 -33 -10 -80z"/>
<path d="M5773 3060 c-47 -19 -57 -87 -18 -125 28 -29 76 -33 100 -9 22 23 13
27 -20 10 -35 -18 -67 -7 -79 26 -23 64 28 108 86 75 33 -19 38 -5 6 17 -25
18 -42 19 -75 6z"/>
<path d="M2580 2985 c0 -43 4 -75 10 -75 6 0 10 16 10 35 0 41 17 39 44 -5 9
-17 22 -30 27 -30 6 0 1 15 -10 33 -20 32 -20 33 -1 45 44 27 17 72 -42 72
l-38 0 0 -75z m75 35 c0 -20 -6 -26 -27 -28 -25 -3 -28 0 -28 28 0 28 3 31 28
28 21 -2 27 -8 27 -28z"/>
<path d="M3156 2989 c-30 -80 -29 -79 -16 -79 6 0 10 6 10 14 0 32 63 35 84 4
9 -12 18 -20 20 -17 9 9 -47 149 -59 149 -7 0 -24 -32 -39 -71z m64 -20 c0 -5
-11 -9 -25 -9 -28 0 -29 4 -14 50 l12 32 13 -32 c8 -18 14 -36 14 -41z"/>
<path d="M3851 2993 c10 -38 19 -71 19 -75 0 -5 6 -8 13 -8 6 0 21 28 31 63
l19 62 19 -63 c11 -36 24 -62 30 -60 6 2 20 33 30 69 20 73 21 79 10 79 -5 0
-14 -25 -21 -55 -7 -30 -16 -55 -20 -55 -4 0 -13 25 -20 55 -17 73 -35 71 -58
-7 l-19 -63 -17 63 c-10 34 -22 62 -27 62 -5 0 0 -30 11 -67z"/>
<path d="M4120 3046 c0 -8 -6 -17 -12 -19 -10 -4 -10 -6 0 -6 7 -1 12 -17 12
-44 0 -24 5 -48 12 -55 15 -15 38 -16 38 -2 0 6 -7 10 -15 10 -23 0 -21 87 3
93 16 4 16 5 0 6 -10 0 -18 8 -18 16 0 8 -4 15 -10 15 -5 0 -10 -6 -10 -14z"/>
<path d="M4400 2985 l0 -75 43 1 c38 1 39 2 12 8 -29 6 -30 8 -33 74 -4 91
-22 85 -22 -8z"/>
<path d="M4660 3045 c0 -8 -6 -15 -12 -15 -10 0 -10 -2 -1 -8 6 -4 13 -30 15
-57 3 -43 6 -50 26 -53 12 -2 22 1 22 7 0 6 -7 11 -15 11 -23 0 -21 87 3 93
16 4 16 5 0 6 -10 0 -18 8 -18 16 0 8 -4 15 -10 15 -5 0 -10 -7 -10 -15z"/>
<path d="M4993 3041 c-7 -10 -8 -22 -3 -27 5 -5 10 -29 12 -54 3 -38 7 -46 26
-48 27 -4 29 14 2 21 -30 8 -28 74 3 87 16 6 17 9 5 9 -9 1 -21 8 -25 16 -7
12 -10 12 -20 -4z"/>
<path d="M5143 3053 c26 -4 27 -6 27 -74 0 -39 4 -69 10 -69 6 0 10 30 10 69
0 64 2 70 23 74 12 2 -5 4 -38 4 -33 0 -48 -2 -32 -4z"/>
<path d="M2722 3018 c-17 -17 -15 -74 4 -92 21 -22 60 -20 84 4 24 24 25 48 4
78 -17 25 -71 31 -92 10z m69 -8 c26 -14 24 -55 -3 -74 -41 -29 -81 17 -53 60
17 27 27 29 56 14z"/>
<path d="M2867 3012 c-36 -40 -9 -102 45 -102 49 0 78 69 42 104 -21 22 -67
20 -87 -2z m72 -6 c7 -8 11 -27 9 -43 -3 -25 -7 -28 -38 -28 -31 0 -35 3 -38
28 -4 32 13 57 38 57 10 0 23 -6 29 -14z"/>
<path d="M3353 3018 c-31 -40 -19 -94 22 -104 59 -15 103 42 70 92 -17 27 -75
34 -92 12z m72 -14 c21 -21 16 -53 -10 -70 -18 -12 -24 -11 -43 2 -26 18 -28
46 -6 68 20 20 38 20 59 0z"/>
<path d="M3490 2968 c0 -32 4 -58 10 -58 6 0 10 23 10 50 0 38 4 52 16 57 30
11 49 -11 52 -61 2 -25 7 -46 13 -46 12 0 12 62 -1 94 -8 23 -15 26 -55 24
l-45 -1 0 -59z"/>
<path d="M3643 3017 c-18 -23 -22 -47 -13 -72 11 -29 55 -43 82 -26 19 12 24
-1 12 -33 -7 -18 -59 -22 -69 -6 -3 6 -11 10 -17 10 -6 0 -3 -9 7 -20 10 -11
29 -20 42 -20 44 0 63 33 63 108 l0 68 -49 2 c-29 1 -52 -3 -58 -11z m72 -13
c21 -21 16 -53 -10 -70 -18 -12 -24 -11 -43 2 -26 18 -28 46 -6 68 20 20 38
20 59 0z"/>
<path d="M4060 2970 c0 -33 4 -60 10 -60 6 0 10 27 10 60 0 33 -4 60 -10 60
-6 0 -10 -27 -10 -60z"/>
<path d="M4513 3017 c-18 -23 -22 -47 -13 -72 11 -29 55 -43 82 -26 11 7 18 7
18 1 0 -5 5 -10 10 -10 6 0 10 26 10 58 l0 58 -49 2 c-29 1 -52 -3 -58 -11z
m72 -13 c21 -21 16 -53 -10 -70 -18 -12 -24 -11 -43 2 -26 18 -28 46 -6 68 20
20 38 20 59 0z"/>
<path d="M4742 3018 c-17 -17 -15 -74 4 -92 19 -20 54 -20 80 -2 26 20 11 32
-17 12 -25 -17 -59 -6 -59 19 0 11 12 15 45 15 37 0 45 3 45 18 0 27 -20 42
-55 42 -17 0 -36 -5 -43 -12z m62 -4 c30 -12 18 -34 -19 -34 -24 0 -35 5 -35
14 0 21 27 31 54 20z"/>
<path d="M4874 3015 c-10 -25 3 -43 35 -50 32 -7 42 -29 18 -38 -8 -3 -20 -1
-28 4 -22 14 -33 11 -19 -6 24 -28 80 -13 80 23 0 7 -16 20 -35 28 -19 8 -35
19 -35 24 0 16 30 24 43 11 17 -17 31 -13 17 4 -7 8 -26 15 -42 15 -16 0 -31
-6 -34 -15z"/>
<path d="M5266 3014 c-37 -37 -7 -104 46 -104 27 0 56 25 44 37 -4 4 -10 3
-14 -3 -12 -18 -40 -23 -58 -10 -26 20 -8 36 42 36 48 0 52 5 28 38 -18 26
-65 30 -88 6z m72 -6 c21 -21 13 -28 -28 -28 -22 0 -40 4 -40 8 0 14 23 32 40
32 9 0 21 -5 28 -12z"/>
<path d="M5402 3018 c-17 -17 -15 -74 4 -92 20 -21 58 -20 79 0 23 23 11 29
-18 9 -24 -16 -27 -15 -47 5 -15 15 -19 27 -14 43 12 38 27 42 79 21 18 -7 18
-6 6 9 -16 20 -71 23 -89 5z"/>
<path d="M5917 3012 c-34 -38 -8 -102 42 -102 50 0 76 53 51 101 -14 25 -71
26 -93 1z m72 -6 c7 -8 11 -27 9 -43 -2 -23 -9 -29 -32 -31 -31 -4 -46 10 -46
44 0 40 45 59 69 30z"/>
<path d="M6050 2987 c0 -54 21 -76 73 -74 l37 1 0 58 c0 32 -4 58 -10 58 -5 0
-10 -20 -10 -45 0 -32 -5 -47 -18 -54 -31 -17 -52 5 -52 54 0 25 -4 45 -10 45
-5 0 -10 -20 -10 -43z"/>
<path d="M6200 2968 c0 -32 4 -58 10 -58 6 0 10 23 10 50 0 37 4 50 14 50 8 0
17 4 21 9 3 5 -8 9 -25 9 -30 -1 -30 -1 -30 -60z"/>
<path d="M6287 3023 c-18 -17 -5 -44 28 -57 19 -8 35 -19 35 -25 0 -15 -23
-19 -43 -9 -23 12 -37 1 -17 -12 33 -21 80 -5 80 28 0 7 -16 20 -35 28 -19 8
-35 21 -35 29 0 17 35 21 45 5 3 -5 11 -10 17 -10 7 0 6 6 -2 15 -13 15 -61
21 -73 8z"/>
<path d="M6407 3012 c-21 -23 -22 -51 -1 -80 17 -24 62 -30 82 -10 20 20 13
29 -10 14 -16 -10 -30 -11 -46 -5 -37 14 -20 34 31 37 51 3 60 17 29 45 -24
22 -65 21 -85 -1z m71 -4 c21 -21 13 -28 -28 -28 -22 0 -40 4 -40 8 0 14 23
32 40 32 9 0 21 -5 28 -12z"/>
<path d="M6530 2920 c0 -5 4 -10 9 -10 6 0 13 5 16 10 3 6 -1 10 -9 10 -9 0
-16 -4 -16 -10z"/>
<path d="M12921 2813 c-2 -29 -7 -32 -101 -45 -44 -7 -80 -16 -80 -20 0 -4 4
-8 9 -8 6 0 7 -24 4 -55 -9 -87 -15 -85 241 -84 124 1 203 5 181 9 -22 4 -33
8 -25 9 8 0 31 6 52 11 30 9 35 14 31 33 -12 47 -40 64 -114 70 -39 3 -97 16
-129 29 -48 18 -60 28 -63 48 -3 22 -4 22 -6 3z m-8 -73 c-6 -21 -28 -26 -52
-11 -20 13 -4 31 29 31 23 0 27 -3 23 -20z"/>
<path d="M2631 2592 c-64 -34 -71 -62 -71 -282 0 -220 7 -248 71 -282 32 -17
81 -18 929 -18 848 0 897 1 929 18 64 34 71 62 71 282 0 220 -7 248 -71 282
-32 17 -81 18 -929 18 -848 0 -897 -1 -929 -18z m354 -222 c-5 -8 -11 -8 -17
-2 -6 6 -7 16 -3 22 5 8 11 8 17 2 6 -6 7 -16 3 -22z m491 -11 c16 -18 16 -19
-4 -19 -11 0 -24 5 -27 10 -13 20 -55 11 -67 -15 -16 -35 3 -75 36 -75 14 0
28 5 31 10 3 6 16 10 27 10 20 0 20 -1 4 -19 -23 -25 -58 -31 -95 -15 -55 23
-55 105 0 128 37 16 72 10 95 -15z m-618 -27 c7 -23 17 -40 21 -38 4 3 13 23
21 45 9 27 19 41 30 41 16 0 15 -7 -9 -70 -38 -103 -61 -91 -107 53 -4 14 -1
18 12 15 10 -2 23 -20 32 -46z m237 6 c53 -47 0 -126 -63 -96 -23 11 -27 20
-27 53 0 32 5 42 25 52 33 17 35 17 65 -9z m490 10 c46 -21 46 -85 0 -106 -73
-33 -125 69 -54 105 29 15 23 15 54 1z m221 -20 c-10 -6 -16 -22 -16 -48 0
-29 -4 -40 -15 -40 -11 0 -15 13 -15 54 0 52 1 55 28 58 31 3 42 -10 18 -24z
m112 -2 c4 -17 -13 -22 -23 -6 -8 12 -35 13 -35 1 0 -5 14 -14 30 -20 35 -12
41 -45 11 -61 -25 -13 -71 3 -71 25 0 17 16 20 25 5 8 -12 35 -13 35 -1 0 5
-13 14 -30 20 -20 7 -30 17 -30 31 0 39 81 45 88 6z m120 6 c6 -9 10 -27 8
-42 -2 -14 -5 -28 -5 -33 -2 -15 -51 -27 -75 -17 -28 10 -41 41 -32 76 11 43
75 53 104 16z m227 -2 l29 -30 -29 -30 c-30 -31 -58 -31 -29 1 17 19 15 19
-54 19 -41 0 -72 4 -72 10 0 6 31 10 72 10 68 0 70 1 55 18 -38 42 -12 43 28
2z m-1275 -35 c0 -42 -3 -55 -15 -55 -12 0 -15 13 -15 55 0 42 3 55 15 55 12
0 15 -13 15 -55z m166 23 l7 -33 14 33 c7 17 20 32 28 32 8 0 18 -14 23 -32
l8 -33 12 33 c6 17 17 32 25 32 12 0 12 -8 -2 -55 -18 -62 -43 -73 -59 -27
l-10 27 -11 -27 c-16 -42 -37 -34 -55 19 -20 57 -20 63 -2 63 8 0 18 -15 22
-32z m506 -10 c2 -35 7 -43 23 -43 16 0 21 8 23 43 2 28 8 42 18 42 10 0 14
-14 14 -54 0 -53 0 -54 -32 -59 -52 -8 -78 15 -78 68 0 33 4 45 14 45 10 0 16
-14 18 -42z"/>
<path d="M3035 2320 c-4 -6 5 -10 19 -10 14 0 26 5 26 10 0 6 -9 10 -19 10
-11 0 -23 -4 -26 -10z"/>
<path d="M3035 2270 c3 -5 15 -10 26 -10 10 0 19 5 19 10 0 6 -12 10 -26 10
-14 0 -23 -4 -19 -10z"/>
<path d="M3534 2316 c-10 -26 1 -51 22 -54 24 -3 38 20 29 49 -7 22 -43 25
-51 5z"/>
<path d="M3970 2320 c0 -5 12 -10 26 -10 14 0 23 4 19 10 -3 6 -15 10 -26 10
-10 0 -19 -4 -19 -10z"/>
<path d="M3965 2270 c3 -5 15 -10 25 -10 10 0 22 5 25 10 4 6 -7 10 -25 10
-18 0 -29 -4 -25 -10z"/>
<path d="M13175 2574 c-238 -24 -439 -35 -530 -30 -49 3 -181 9 -291 12 l-202
6 -7 -22 c-4 -12 -4 -41 -1 -65 l7 -42 137 -7 c219 -11 398 -10 527 3 240 24
322 31 420 37 55 3 103 8 108 11 4 2 7 29 7 59 0 50 -2 54 -22 53 -13 -1 -81
-8 -153 -15z"/>
<path d="M10899 2193 c-8 -10 -27 -37 -42 -59 l-28 -41 21 -52 c58 -149 166
-251 263 -251 39 0 54 14 63 58 5 25 -2 45 -32 99 -22 37 -46 85 -54 107 -11
27 -27 45 -55 60 -22 11 -41 24 -43 29 -2 4 -9 7 -15 7 -7 0 -23 14 -37 31
-24 29 -26 30 -41 12z"/>
<path d="M12500 2059 c-82 -14 -99 -21 -115 -45 -8 -13 -24 -24 -35 -24 -11 0
-20 -4 -20 -10 0 -5 -9 -10 -20 -10 -19 0 -60 -28 -60 -41 0 -8 98 -3 260 14
l115 12 3 58 3 57 -43 -1 c-24 -1 -63 -5 -88 -10z"/>
<path d="M11462 1969 l3 -64 140 -12 c77 -6 190 -12 250 -13 125 -1 327 21
348 38 10 9 16 9 25 0 9 -9 12 -7 12 10 0 21 -4 21 -72 18 -98 -5 -141 2 -133
22 5 12 -3 14 -48 9 -44 -4 -57 -2 -69 12 -12 15 -39 19 -144 24 -71 4 -171
10 -222 13 l-93 7 3 -64z m551 -16 c-7 -2 -19 -2 -25 0 -7 3 -2 5 12 5 14 0
19 -2 13 -5z"/>
<path d="M10988 1543 c6 -2 18 -2 25 0 6 3 1 5 -13 5 -14 0 -19 -2 -12 -5z"/>
<path d="M10813 1524 c-8 -4 -13 -26 -13 -60 0 -47 3 -56 23 -63 12 -5 106
-17 209 -27 l187 -18 193 29 c279 41 285 42 263 45 -11 2 -29 2 -40 1 -36 -4
-95 21 -95 39 0 21 -66 38 -82 22 -6 -6 -25 -8 -43 -5 -18 3 -64 0 -101 -6
-47 -9 -75 -9 -93 -2 -14 6 -89 17 -166 26 -209 23 -229 25 -242 19z"/>
</g>
</svg>
