<svg width="65" height="64" viewBox="0 0 65 64" fill="none" xmlns="http://www.w3.org/2000/svg">
<circle cx="32.0469" cy="32" r="32" fill="white"/>
<circle cx="32.0469" cy="32" r="32" fill="white"/>
<path d="M32.7481 29.0633C32.7481 35.2678 27.7275 40.2975 21.5342 40.2975C15.3409 40.2975 10.3203 35.2678 10.3203 29.0633C10.3203 22.8588 15.3409 17.8291 21.5342 17.8291C27.7275 17.8291 32.7481 22.8588 32.7481 29.0633ZM14.3143 29.0633C14.3143 33.0579 17.5468 36.2962 21.5342 36.2962C25.5217 36.2962 28.7541 33.0579 28.7541 29.0633C28.7541 25.0686 25.5217 21.8303 21.5342 21.8303C17.5468 21.8303 14.3143 25.0686 14.3143 29.0633Z" fill="black"/>
<path d="M48.2868 42.7477C46.68 44.9822 44.3106 46.5492 41.6282 47.1513C38.9459 47.7534 36.1373 47.3487 33.7355 46.014C31.3337 44.6793 29.506 42.5075 28.5991 39.9108C27.6922 37.3141 27.7693 34.4732 28.8158 31.9274L32.0256 33.2471C31.303 35.0051 31.2497 36.9668 31.876 38.7598C32.5022 40.5529 33.7643 42.0526 35.4227 42.9742C37.0812 43.8958 39.0206 44.1753 40.8728 43.7595C42.725 43.3437 44.3611 42.2617 45.4706 40.7187L48.2868 42.7477Z" fill="black"/>
<path d="M11.3695 33.3148C10.1666 33.8758 9.64617 35.3057 10.2071 36.5087C10.4295 36.9855 10.9939 37.195 11.4735 36.9788L16.0265 34.9262L14.5774 31.8189L11.3695 33.3148Z" fill="black"/>
<rect width="3.38013" height="16.0347" transform="matrix(0.719201 0.694802 -0.636312 0.771431 38.7031 23.2109)" fill="black"/>
<path d="M44.7148 28.3149L47.1746 30.6913L44.9219 33.4223C44.321 34.1509 43.2832 34.2095 42.6039 33.5533C41.9247 32.8971 41.8612 31.7745 42.4622 31.046L44.7148 28.3149Z" fill="black"/>
<path d="M52.3993 36.7197C53.3987 35.5596 53.9585 34.0331 53.9599 32.4643C53.9613 30.8955 53.4042 29.408 52.4069 28.3175C51.4095 27.227 50.0505 26.6194 48.6182 26.6236C47.186 26.6279 45.7933 27.2437 44.7358 28.3403L46.9596 30.9228C47.3844 30.4823 47.9437 30.2349 48.519 30.2332C49.0943 30.2315 49.6402 30.4756 50.0408 30.9136C50.4414 31.3516 50.6651 31.9491 50.6646 32.5792C50.664 33.2093 50.4392 33.8224 50.0377 34.2884L52.3993 36.7197Z" fill="black"/>
<path d="M47.0216 30.8057C47.9221 29.5531 48.3528 27.9812 48.2222 26.4237C48.0915 24.8662 47.4099 23.4458 46.322 22.4639C45.2341 21.482 43.8256 21.0161 42.3954 21.1649C40.9653 21.3138 39.6262 22.0658 38.6623 23.2612L41.1007 25.6003C41.4878 25.1201 42.0257 24.8181 42.6002 24.7583C43.1746 24.6985 43.7403 24.8857 44.1773 25.28C44.6143 25.6744 44.8881 26.245 44.9405 26.8705C44.993 27.4961 44.82 28.1275 44.4583 28.6306L47.0216 30.8057Z" fill="black"/>
<path d="M50.2539 33.9624L52.5817 36.5516L48.0915 43.0181L45.4598 40.8665L50.2539 33.9624Z" fill="black"/>
<rect width="3.38013" height="8.02712" transform="matrix(0.858734 0.512422 -0.44356 0.896245 32.3984 23.1084)" fill="black"/>
<path d="M42.037 23.1842C41.5395 22.1847 40.7982 21.3564 39.8978 20.7938C38.9974 20.2313 37.9743 19.9572 36.9453 20.0029C35.9163 20.0486 34.9229 20.4122 34.0787 21.0522C33.2345 21.6922 32.5735 22.5828 32.1712 23.6222L35.1966 25.0717C35.3582 24.6542 35.6237 24.2965 35.9627 24.0394C36.3018 23.7823 36.7008 23.6363 37.1141 23.6179C37.5274 23.5996 37.9384 23.7097 38.3001 23.9356C38.6617 24.1616 38.9594 24.4943 39.1593 24.8957L42.037 23.1842Z" fill="black"/>
<path d="M22.7124 28.2628C22.7124 29.8598 21.4232 31.1545 19.8328 31.1545C18.2424 31.1545 16.9531 29.8598 16.9531 28.2628C16.9531 26.6657 18.2424 25.3711 19.8328 25.3711C21.4232 25.3711 22.7124 26.6657 22.7124 28.2628Z" fill="black"/>
<path d="M20.3756 27.657C20.3756 28.2882 19.8639 28.7999 19.2327 28.7999C18.6015 28.7999 18.0898 28.2882 18.0898 27.657C18.0898 27.0258 18.6015 26.5142 19.2327 26.5142C19.8639 26.5142 20.3756 27.0258 20.3756 27.657Z" fill="white"/>
<path d="M28.7752 22.1709C30.4548 22.1709 31.8164 20.8093 31.8164 19.1297C31.8164 18.4623 31.2787 17.9195 30.6113 17.9132L21.5307 17.828L23.3744 22.1709H28.7752Z" fill="black"/>
</svg>
