<svg width="64" height="64" viewBox="0 0 64 64" fill="none" xmlns="http://www.w3.org/2000/svg">
<g clip-path="url(#clip0_1_233)">
<path d="M63 32C63 49.1208 49.1208 63 32 63C14.8792 63 1 49.1208 1 32C1 14.8792 14.8792 1 32 1C49.1208 1 63 14.8792 63 32Z" fill="white" stroke="white" stroke-width="2"/>
<path d="M32.7024 29.0628C32.7024 35.2673 27.6818 40.297 21.4885 40.297C15.2953 40.297 10.2747 35.2673 10.2747 29.0628C10.2747 22.8584 15.2953 17.8286 21.4885 17.8286C27.6818 17.8286 32.7024 22.8584 32.7024 29.0628ZM14.2687 29.0628C14.2687 33.0575 17.5011 36.2958 21.4885 36.2958C25.476 36.2958 28.7084 33.0575 28.7084 29.0628C28.7084 25.0682 25.476 21.8299 21.4885 21.8299C17.5011 21.8299 14.2687 25.0682 14.2687 29.0628Z" fill="black"/>
<path d="M48.2404 42.7481C46.6336 44.9826 44.2642 46.5496 41.5818 47.1517C38.8994 47.7538 36.0908 47.3491 33.6891 46.0144C31.2873 44.6797 29.4595 42.5079 28.5526 39.9112C27.6457 37.3145 27.7229 34.4736 28.7694 31.9277L31.9792 33.2476C31.2566 35.0055 31.2033 36.9672 31.8296 38.7603C32.4558 40.5533 33.7179 42.0529 35.3764 42.9746C37.0348 43.8962 38.9742 44.1757 40.8264 43.7599C42.6786 43.3441 44.3147 42.2621 45.4242 40.7191L48.2404 42.7481Z" fill="black"/>
<path d="M11.321 33.3148C10.118 33.8758 9.59758 35.3058 10.1586 36.5087C10.3809 36.9855 10.9453 37.195 11.4249 36.9788L15.9779 34.9262L14.5288 31.8188L11.321 33.3148Z" fill="black"/>
<path d="M41.0881 25.559L38.6571 23.2104L28.454 35.5801L30.885 37.9287L41.0881 25.559Z" fill="black"/>
<path d="M44.6704 28.3149L47.1302 30.6912L44.5435 33.8272C44.127 34.3321 43.4078 34.3728 42.937 33.918L42.182 33.1886C41.7112 32.7338 41.6673 31.9558 42.0837 31.4509L44.6704 28.3149Z" fill="black"/>
<path d="M52.3513 36.7201C53.3507 35.56 53.9105 34.0335 53.9119 32.4648C53.9133 30.896 53.3563 29.4085 52.3589 28.3179C51.3615 27.2274 50.0025 26.6198 48.5702 26.624C47.1379 26.6283 45.7452 27.2441 44.6878 28.3407L46.9116 30.9232C47.3363 30.4827 47.8957 30.2354 48.471 30.2336C49.0463 30.232 49.5922 30.476 49.9928 30.914C50.3933 31.352 50.6171 31.9496 50.6166 32.5797C50.616 33.2098 50.3912 33.8229 49.9897 34.2889L52.3513 36.7201Z" fill="black"/>
<path d="M46.9742 30.8062C47.8747 29.5535 48.3054 27.9817 48.1748 26.4242C48.0441 24.8667 47.3625 23.4462 46.2746 22.4644C45.1867 21.4825 43.7782 21.0165 42.348 21.1654C40.9179 21.3143 39.5788 22.0662 38.6149 23.2616L41.0533 25.6007C41.4405 25.1206 41.9783 24.8185 42.5528 24.7588C43.1272 24.699 43.693 24.8862 44.1299 25.2805C44.5669 25.6749 44.8406 26.2455 44.8932 26.871C44.9456 27.4966 44.7726 28.1279 44.4109 28.6311L46.9742 30.8062Z" fill="black"/>
<path d="M50.204 33.9624L52.5318 36.5516L48.0416 43.0181L45.4099 40.8665L50.204 33.9624Z" fill="black"/>
<path d="M35.252 24.8409L32.3494 23.1089L28.7889 30.3032L31.6915 32.0352L35.252 24.8409Z" fill="black"/>
<path d="M41.9891 23.1842C41.4916 22.1848 40.7503 21.3564 39.8499 20.7939C38.9495 20.2313 37.9264 19.9573 36.8974 20.003C35.8684 20.0486 34.875 20.4123 34.0308 21.0523C33.1866 21.6923 32.5256 22.5829 32.1233 23.6223L35.1487 25.0718C35.3103 24.6543 35.5758 24.2965 35.9148 24.0395C36.2539 23.7824 36.6529 23.6364 37.0663 23.618C37.4795 23.5996 37.8905 23.7097 38.2522 23.9357C38.6138 24.1617 38.9116 24.4943 39.1114 24.8958L41.9891 23.1842Z" fill="black"/>
<path d="M22.6626 28.2633C22.6626 29.8603 21.3733 31.1549 19.7829 31.1549C18.1925 31.1549 16.9032 29.8603 16.9032 28.2633C16.9032 26.6662 18.1925 25.3716 19.7829 25.3716C21.3733 25.3716 22.6626 26.6662 22.6626 28.2633Z" fill="black"/>
<path d="M20.3318 27.657C20.3318 28.2882 19.8201 28.7999 19.1889 28.7999C18.5578 28.7999 18.0461 28.2882 18.0461 27.657C18.0461 27.0259 18.5578 26.5142 19.1889 26.5142C19.8201 26.5142 20.3318 27.0259 20.3318 27.657Z" fill="white"/>
<path d="M28.8085 22.1715C30.4449 22.1715 31.7714 20.8449 31.7714 19.2085V19.0993C31.7714 18.449 31.2475 17.9202 30.5973 17.9141L21.4857 17.8286L23.3294 22.1715H28.8085Z" fill="black"/>
</g>
<defs>
<clipPath id="clip0_1_233">
<rect width="64" height="64" fill="white"/>
</clipPath>
</defs>
</svg>
